<?xml version="1.0" encoding="utf-8"?>
<!-- Generator: Adobe Illustrator 17.1.0, SVG Export Plug-In . SVG Version: 6.00 Build 0)  -->
<!DOCTYPE svg PUBLIC "-//W3C//DTD SVG 1.1//EN" "http://www.w3.org/Graphics/SVG/1.1/DTD/svg11.dtd">
<svg version="1.1" id="Layer_1" xmlns="http://www.w3.org/2000/svg" xmlns:xlink="http://www.w3.org/1999/xlink" x="0px" y="0px"
	 width="1400px" height="980px" viewBox="0 0 1400 980" enable-background="new 0 0 1400 980" xml:space="preserve">
<g>
	<g>
		<path fill-rule="evenodd" clip-rule="evenodd" fill="#996633" d="M523.2,117.4c-26.5,10-28.5,51.8-34.9,76
			c-3.3,12.5,10.3,48.7,18.4,58.2c34.8,40.8,69.4,36.6,112.3,18.2c19.1-8.2,35.4-30.2,42.3-50c1.3-24.1-4-50.6-4.4-53.2
			c-2.7-19.2-9.5-22.4-17-37.3c-3.3-6.6-8.1-9.2-11.2-12.8c-7.8-9.1-42.2-8.7-57.7-5.8c-4.1,0.7-24.8-0.1-34.6,2.3
			C530.9,114.6,526.3,116.2,523.2,117.4"/>
		<path fill-rule="evenodd" clip-rule="evenodd" fill="#CC6633" d="M510.5,197c3.6-22,5.9-46.9,24.2-59.3c17.5-12,34.7-11.5,54.3-14
			c23.3-3,27.2,3.1,41,17.9c6.6,7,14.9,57.8,10.1,71.1c-3.4,9.3-13,28.7-24.9,34c-17.2,7.6-36.6,8.1-55.4,9.9
			C536.7,258.7,508,212.2,510.5,197"/>
		<path d="M489.9,176.2c4.7-23.8,10.4-52.4,32.5-60.7c7-2.6,21.6-7.3,35.5-10.7c9.8-2.4,19.2-4.3,25.3-4.3c12.9-0.2,24.8,0,35.8,2.9
			c11.1,3,21.2,8.8,30,20c17.6,22.2,17.6,51.5,17.5,78.4h0v0.6h0c0,11.9-5.8,27.3-14.9,40.9c-8.4,12.4-19.6,23.3-31.9,28.6
			c-21.7,9.3-41.4,15-60.2,13.2c-18.9-1.8-36.7-11.2-54.5-32c-4.6-5.4-10.8-18.7-14.9-31.7c-3.5-11.1-5.6-22.2-3.9-28.3
			C487.6,188,488.7,182.2,489.9,176.2L489.9,176.2z M542,178.6c-1.3-7.1-1.6-14.5-1.9-22c-0.2-6.4-0.5-12.9-1.4-19.1
			c-0.9,0.6-1.9,1.2-2.8,1.8c-13.4,9.1-17.8,25.6-20.8,42.6c2.3-0.3,5.1-0.8,8-1.3C529.5,179.6,536.7,178.3,542,178.6z M549.4,173.3
			c-0.4-2.1-0.2-5.5-0.1-8.9c0.1-3,0.2-6,0-7.7h0l0,0c-0.2-1.6-1.1-9.2-1.8-15.7l0,0c-0.3-2.9-0.6-5.6-0.8-7.6
			c-1.4,0.6-2.8,1.2-4.2,2c1.2,6.8,1.4,13.9,1.7,21c0.3,7.6,0.6,15.1,2,22.1C547,177,548.1,175.2,549.4,173.3z M564.4,129.1
			c-0.1-0.1-0.1-0.3-0.2-0.4c-4.6,0.8-9.2,1.8-13.7,3.3c0.2,1.8,0.5,5,0.9,8.6l0,0c0.7,6.6,1.6,14.1,1.8,15.6c0.3,2,0.2,5.2,0.1,8.3
			c0,1.3-0.1,2.6-0.1,3.8c0.4-0.5,0.9-0.9,1.3-1.2l0.2-0.1c1.4-0.9,2.9-1.8,4.5-2.6c2.8-1.4,6-2.6,9.3-3.5c-0.8-3.4-1-7.9-1.2-12.5
			C567.1,141.4,566.7,133.9,564.4,129.1z M574.7,159.7l0.1-0.9c0.1-0.9,0.2-1.9,0.1-2.3h0l0,0c-1.5-5.6-1.6-12-1.6-18.2
			c0-3.8,0-7.5-0.4-10.8c-1.5,0.2-3,0.3-4.5,0.5c2.4,5.5,2.7,13.2,3,20.2c0.2,4.4,0.4,8.7,1.1,11.8
			C573.2,159.9,573.9,159.8,574.7,159.7z M593.2,161.4c0-1.8,0.1-3.6,0.2-4.7c0-0.5,0.1-0.8,0.1-0.8h0l0,0
			c-0.7-4.9-0.7-9.3-0.8-13.6c-0.1-5.4-0.1-10.7-1.5-16.7c-0.6,0.1-1.3,0.1-2,0.2c-3.6,0.5-7.1,0.8-10.5,1.2l-1.9,0.2
			c0.4,3.5,0.4,7.3,0.4,11.2c0,5.9,0,12,1.4,17.1h0c0.3,1.1,0.2,2.5,0.1,3.8l0,0.1c1.5-0.1,3-0.1,4.4,0
			C586.7,159.5,590.1,160.2,593.2,161.4z M600.2,165.4c-0.2-3.1-0.3-7-0.2-11.3c0.1-10.7,0.7-23.7,1.2-29.1
			c-1.8-0.1-3.7-0.1-5.8,0.1c1.3,6.2,1.4,11.6,1.5,17c0.1,4.1,0.1,8.4,0.8,13.1h0c0.1,0.4,0,0.9-0.1,1.7c-0.1,1.6-0.3,4.3-0.1,6.5
			C598.4,164,599.3,164.7,600.2,165.4z M605.2,125.5c-0.4,5-1.1,18-1.2,28.7c-0.1,7.8,0,14.2,0.4,14.6c0.2,0.2,0.4,0.5,0.5,0.8l0,0
			l0.4,1.3l0.3,0.4c0.7,1,1.3,2.1,1.9,3.2l0.3,0.7c7.1-2.8,14.7-3.5,21.8-4.2l2.5-0.3c1.4-0.1,2.9-0.5,4.4-0.8h0
			c-2.2-12.8-5.2-24-7.9-26.9l-0.1-0.1l-2.6-2.8C618.3,131.9,613.7,127,605.2,125.5z M565.8,181c1.6-1.4,3.8-2.6,6.5-3.3l0.1,0
			l2.1-0.5c8.6-2.5,11.2,0.9,13.1,7.1c0.4,1.4,0.8,2.9,1.1,4.6l0.2,1c2,8.6-2.4,11.7-6.9,12.7c-2.7,0.6-5.3,0.4-6.2,0.3v0l-0.1,0
			c-5.1-0.4-5.6-0.9-8.3-4.3l-0.1-0.1c-0.6-0.8-1.5-1.8-2.5-3l-0.1-0.1c-1.1-1.3-1.9-2.7-2.3-4.1c-0.5-1.8-0.4-3.7,0.2-5.4
			C563.1,184,564.2,182.4,565.8,181z M573.3,181.6c-2,0.6-3.7,1.4-4.8,2.5c-1,0.9-1.7,1.9-2.1,2.9c-0.3,1-0.4,2-0.1,3
			c0.2,0.9,0.7,1.7,1.4,2.5l0.1,0.1c1.1,1.3,2,2.3,2.6,3.1l0.1,0.1c1.8,2.2,2.1,2.5,5.5,2.8l0.1,0v0c0.8,0.1,3,0.2,5-0.2
			c2.6-0.6,5.1-2.4,3.8-7.8l-0.2-1c-0.4-1.6-0.7-3.1-1.1-4.3c-1.1-3.8-2.8-5.9-8.1-4.3l-0.1,0L573.3,181.6z M548,251.7
			c-0.2-1.4-0.3-3.1-0.5-4.8l-0.5-5.5c-0.7-2.6-1-10.8-0.9-18.4c0.1-4.3,0.3-8.5,0.7-11.4c-4.5,0.7-10.3,1.5-15.7,2.3
			c-5.5,0.8-10.7,1.5-13.8,2c2.6,5.4,6,11.2,10,16.6C533.4,240.5,540.7,247.8,548,251.7z M549.7,256.9L549.7,256.9
			c-0.1,0-0.3-0.1-0.4-0.2l0,0c-9-3.7-17.9-12.3-25.1-22c-4.7-6.3-8.7-13.2-11.5-19.5c-0.1-0.1-0.1-0.3-0.2-0.4
			c-2.2-5.2-3.7-10-4.1-13.9l0-0.1c-0.1-1.6-0.1-3,0.1-4.2c0.4-2.3,0.7-4.2,1-6.1l0,0h0c0.3-2.2,0.7-4.4,1.1-6.7l0-0.1l0,0v0
			c3.1-18.6,7.6-37.3,23-47.8c1.9-1.3,3.7-2.4,5.6-3.4l0.1-0.1l0,0l0,0c11.5-6.3,22.9-7.9,35-9.2l0.1,0l0.1,0l0.1,0l3.9-0.4
			c3.4-0.4,6.9-0.7,10.4-1.2c22.8-2.9,27.8,2.5,40.1,15.7l2.6,2.8l0.1,0.1c3.3,3.7,6.8,16.6,9.2,30.7l0,0.1l0,0.1l0,0.2
			c0.3,1.7,0.6,3.5,0.8,5.3c0.8,5.7,1.4,11.4,1.7,16.7l0,0.1c0,0.1,0,0.3,0,0.4c0.4,8.4,0.1,15.6-1.4,19.6
			c-2,5.6-6.3,14.9-11.9,22.6c-4,5.5-8.8,10.3-14,12.6c-14.9,6.6-31.3,7.9-47.4,9.3c-3.3,0.3-6.6,0.6-8.6,0.7
			c-1.7,0.2-3.4,0.1-5.2-0.2C553.1,258.1,551.4,257.6,549.7,256.9z M555.6,254.4c-0.1-1-0.2-2.7-0.2-4.3c-0.1-1.9-0.1-3.9,0-4.8
			c0-0.1,0-0.3,0-0.4c1-4.5-0.1-12.7-1-20c-0.7-6-1.4-11.4-0.9-14.4l-0.1-0.2c-0.7,0.2-1.5,0.3-2.5,0.5c-0.4,1.8-0.7,6.8-0.8,12.2
			c-0.1,7.3,0.1,15.1,0.8,17.3c0.1,0.3,0.3,3.1,0.6,6.2c0.2,2.5,0.4,5.2,0.6,7C553.2,253.9,554.4,254.2,555.6,254.4L555.6,254.4z
			 M578.6,252.8c-0.3-3.1-0.4-6.7-0.6-10.4c-0.3-7.8-0.6-16.3-2.7-22.6c-6.6,0.1-12.9-1.6-17.9-5.5c0.1,2.6,0.6,6.2,1.1,10.1
			c1,7.6,2,16.2,0.9,21.3l0,0c0,0.3,0,2.2,0.1,4.3c0.1,2.1,0.2,4.2,0.2,4.5l0,0.1c3.7-0.3,6.1-0.5,8.6-0.8
			C571.7,253.5,575.1,253.2,578.6,252.8z M583.6,252.3c-0.6-3.8-0.3-8.3,0-13.3c0.4-6.2,0.7-13.2-0.4-20.1c-1,0.2-2.1,0.4-3.1,0.6
			l-0.6,0.1c2,6.7,2.3,15.1,2.6,22.8c0.1,3.6,0.3,7.1,0.6,10.1L583.6,252.3z M606.1,247.9L606.1,247.9L606.1,247.9L606.1,247.9
			c-0.3-0.4-0.5-1.1-0.8-2.3c-0.2-0.8,0-1.6,0.6-2.1c-0.2-2.7-0.6-6-0.7-6.3l0,0c-0.3-1.3-0.6-4.5-0.9-7.7c-0.3-3.9-0.4-8-0.3-8.9
			c0.2-1.7-0.4-6.2-1-10.2c-0.1-0.8-0.2-1.5-0.3-2.2c-2.7,2.8-5.9,5.1-9.3,6.9c-2,1.1-4.1,2-6.3,2.7c1.3,7.5,0.9,14.9,0.6,21.4
			c-0.3,4.8-0.5,9.2,0,12.6C594,250.9,600.2,249.7,606.1,247.9z M614.1,244.9c-0.3-1.7-0.4-4.8-0.6-8.1c-0.3-4.6-0.5-9.8-1.1-11.8
			c-1.2-4.5-1.6-9-2-13.8c-0.3-3.9-0.7-8-1.5-12.3l0,0c-0.7,1.8-1.7,3.5-2.8,5l0,0l0,0l0,0l0,0l0,0l0,0c-0.4,0.5-0.8,1.1-1.2,1.6
			c0.6,0.8,1.9,2.2,2.2,4.1c0.6,4.2,1.3,9.1,1,11.3c-0.1,0.6,0.1,4.4,0.3,8.1c0.2,3,0.5,6,0.8,7c0,0.1,0.1,0.3,0.1,0.4
			c0.2,1.4,0.7,5.6,0.9,8.2c0,0.7,0.1,1.3,0,1.8C611.4,246,612.8,245.5,614.1,244.9z M613,198.4c0.8,4.5,1.2,8.6,1.5,12.6
			c0.4,4.6,0.7,9,1.8,13.1c0.7,2.4,1,7.8,1.2,12.6c0.1,2.3,0.3,4.5,0.4,6.1c3.2-2.3,6.2-5.5,8.8-9.2c5.4-7.4,9.4-16.2,11.4-21.6
			c1.2-3.3,1.5-9.1,1.2-16l-2.8,0.5c-2.2,0.4-4.5,0.8-6,0.9c-0.4,0.1-0.7,0.1-1.1-0.1l-0.1,0v0c-3.2-1.2-9.7-0.1-14.8,0.8L613,198.4
			z M548.8,193.1c0,0.1,0.1,0.2,0.1,0.2l0,0c1.2,3.3,3.3,7.2,6.2,12.2c0.2,0.4,0.5,0.8,0.7,1.2l0,0l0,0l0,0
			c4.6,6.6,12.4,9.3,20.5,8.8l0.1,0l0.1,0l0,0c0.9-0.1,1.9-0.2,2.8-0.3c1.6-0.2,3.1-0.6,4.6-1l0,0l0.1,0l0.1,0l0,0
			c2.5-0.7,4.9-1.7,7.2-2.9c3.7-2,7.1-4.6,9.7-7.7c5.8-6.9,8-16.5,2.6-27.4c-0.5-1-1-1.9-1.6-2.8c-4.6-6.9-11.7-9.8-19.1-10.2
			c-7.7-0.4-15.7,1.7-22,4.8c-1.5,0.7-2.9,1.5-4.1,2.3l0,0c-0.2,0.1-0.4,0.4-0.7,0.7l0,0c-0.4,0.4-0.8,1-1.3,1.5
			c-0.6,0.8-1.1,1.5-1.6,2.2l0,0l0,0l0,0l0,0c-3.7,5.2-5.5,8.9-5.4,12.8v0C547.8,189.5,548.2,191.2,548.8,193.1z M528.5,199.4
			c-1,0.6-2.2,0.3-2.8-0.7c-0.6-1-0.3-2.2,0.7-2.8c1.4-0.8,5.6-1.5,9.8-2.1c2.9-0.4,5.8-0.9,7.4-1.3l0.2,0l0.5-0.1
			c-0.4-1.5-0.6-3-0.6-4.4v0c0-1.6,0.2-3.2,0.6-4.8c-4.4-1.2-13.1,0.3-20.6,1.6c-3.5,0.6-6.8,1.2-9.4,1.4c-0.3,1.7-0.5,3.4-0.8,5.1
			h0c-0.3,2.2-0.7,4.4-1,6.1c-0.2,0.9-0.2,2-0.1,3.2l0,0.1c0.3,3.2,1.4,7.1,3.2,11.3c3-0.5,8.8-1.3,15-2.2
			c6.6-0.9,13.7-1.9,18.2-2.6c0.2-0.1,0.5-0.1,0.8-0.1l1.6-0.3c-2.4-4.1-4.2-7.5-5.4-10.5l0,0v0l0,0l-0.9,0.2l-0.1,0
			c-1.8,0.5-4.8,0.9-7.9,1.4C533,198.4,529.2,199,528.5,199.4z M610.5,183.7l1.1-0.1c5.1-0.3,6.4-0.3,13.1-1.5
			c1.1-0.2,2.2,0.6,2.4,1.7c0.2,1.1-0.6,2.2-1.7,2.4c-6.9,1.2-8.2,1.3-13.6,1.5l-0.8,0c0.1,2.1-0.1,4.2-0.5,6.1c0.5,0,1,0.2,1.3,0.6
			l2.2-0.4c5.6-1,12.7-2.2,17-0.5l0,0v0c0.2,0.1,2.4-0.6,4.9-1c1.2-0.2,2.3-0.4,3.3-0.6c-0.3-4.7-0.9-9.7-1.6-14.7l-0.5-3.2
			c-1.5,0.3-3,0.7-4.6,0.8l0,0l0,0h0l-2.5,0.3c-6.8,0.7-14.1,1.4-20.7,3.9C609.8,180.6,610.2,182.1,610.5,183.7z M523.9,119.3
			c-20,7.5-25.4,34.9-30,57.7l0,0h0c-1.2,6.1-2.4,11.8-3.7,16.9c-1.4,5.3,0.6,15.6,3.9,26.1c4,12.6,9.9,25.4,14.1,30.3
			c17,19.9,33.9,28.9,51.8,30.6c17.9,1.7,37-3.8,58.2-12.9c11.6-5,22.2-15.3,30.2-27.1c8.7-12.9,14.2-27.5,14.2-38.6h0v-0.6h0
			c0-26.2,0-54.7-16.7-75.8c-8.2-10.4-17.6-15.8-27.9-18.6c-10.5-2.8-22.1-2.9-34.7-2.8c-5.7,0.1-14.8,1.9-24.3,4.2
			C545.3,112.1,530.8,116.7,523.9,119.3z M543.9,192.4c0.4-0.1,0.8,0,1.2,0.2 M567.8,192.7c0.6,0.8,0.5,2.1-0.3,2.8"/>
		<path fill-rule="evenodd" clip-rule="evenodd" fill="#FF9933" d="M574.8,156.4c-2.3-7-1.1-20.9-2-28.9l-4.5,0.5
			c4,9.2,2.3,23.6,4.1,32l2.2-0.4L574.8,156.4z M549.3,156.8l-2.6-23.3c-1.4,0.6-2.8,1.2-4.2,2c2.4,14,1,29.7,3.7,43.2
			c0.9-1.7,1.9-3.4,3.3-5.3L549.3,156.8z M550.9,210.8l0,29.5l1.2,13.2l3.5,0.9c-1-12.9,1.3-9.5-1.2-29.5c-0.7-6-1.4-11.4-0.9-14.4
			l-0.1-0.2L550.9,210.8z M579.4,219.5c3,10,2.1,22.6,3.2,32.9l1-0.1c-1.3-8.7,1.7-21-0.5-33.4L579.4,219.5z M607,209.8l1.4,19.4
			l1.7,17.3l4-1.6l-1.7-19.9l-3.5-26.2l-4.1,6.8C605.4,206.6,606.7,208,607,209.8z M610.9,187.7c0.1,2.1-0.1,4.2-0.5,6.1
			c0.5,0,1,0.2,1.3,0.6c6.4-1.1,13.9-2.7,19.2-0.9l8.2-1.6l-2.1-17.9c-9.3,2.1-17.5,1-27.9,5c0.6,1.6,1,3.2,1.2,4.7l14.1-1.5
			c2.6-0.5,3.3,3.6,0.7,4L610.9,187.7z M515.6,211.9l35.5-5.2c-2.4-4.1-4.2-7.5-5.4-10.5l-17.1,3.2c-2.3,1.4-4.4-2.1-2.1-3.5
			l17.4-3.5c0,0,0,0,0,0l0.5-0.1l0-9.2c-6.4-1.7-21.8,2.2-30,3l-0.8,5.1C512.1,200.4,511.6,202.1,515.6,211.9z M564.6,195.3
			c-3.8-4.2-3.4-10.3,1.1-14.2l8.7-3.8c11.3-2.9,12.3,3.3,14.4,12.6c2.7,11.7-6.4,13.6-13.2,13C568.8,202.5,569.2,200.3,564.6,195.3
			z M548.8,193.1c5.9,13.9,11.8,25,30.6,22.3c20-2.9,35.9-22.1,22.7-41.8c-11.6-17.4-40.9-9-47.2-0.9
			C549.6,179.8,546,185,548.8,193.1z M600.2,165.4l1-40.4c-1.8-0.1-3.7-0.1-5.8,0.1c2.4,11.1,0.8,19.3,2.2,30.1l-0.2,8.2
			C598.4,164,599.3,164.7,600.2,165.4z"/>
		<path fill-rule="evenodd" clip-rule="evenodd" fill="#FFFFFF" d="M557.7,170.1c1.1,0.8,3.9,1,10.5-1c4.6-1.4,16.2-2.6,20.7,0.1
			c2.3,1.4,3.9,1.2,7,3.9c1.8,1.6,9.2,5.2,9.3,9.1c0,0.2,0.7,1.5,1.4,3.1c-0.5-3.8-2-7.7-4.6-11.6C591.8,158,567.4,163,557.7,170.1"
			/>
		<path fill-rule="evenodd" clip-rule="evenodd" fill="#CC6633" d="M576.1,198.8c10.7,0.9,10.1-4.8,7.6-13.3
			c-1.9-6.3-4.9-5-10.3-3.8c-5.4,1.5-9.7,6.1-5.5,11.1C571.9,197.6,571.5,198.3,576.1,198.8"/>
	</g>
	<g>
		<path d="M909.8,152.8c1.3,1.1,1.6,2.5,1.6,4.4c1.5-2.5,3.2-4.6,5.2-4.3c0.1,0,0.4,0.1,0.7,0.1c-2.1-1.5-3.4-3.1-4.2-4.5
			C911.8,150.5,910.8,151.8,909.8,152.8 M903.3,150.4L903.3,150.4L903.3,150.4l0.2,0c1.3,0.2,2.1,0.3,2.8-0.1l0.1,0
			c0.9-0.5,1.9-1.8,3.3-4l0-0.1c1-1.5,1.5-2.4,1.8-3l0.1-0.1c1-1.7,1.3-2.5,3.1-1.4l0.1,0.1c1,0.6,1,1.1,1.1,2.1
			c0,1,0.2,4.3,5.8,7.3c1.3,0.7,2.1,1.3,2.6,1.8c0.1,0.1,0.1,0.2,0.2,0.2c1,1.5,0.6,2.7-0.7,3.5c-0.5,0.3-1.2,0.5-2,0.6
			c-2,0.2-5.3-0.1-5.9-0.2c-0.1,0-1.4,3-2.6,5.4c-0.8,1.6-1.5,3-2.4,3.8c-0.3,0.4-0.8,0.6-1.4,0.7c-1.4,0.1-2.3-0.7-2.4-2.5
			c-0.1-2,0-3.7,0.1-5.1c0.2-2.7,0.3-3.9-4.6-4.9v0c-1.1-0.2-1.8-1.3-1.6-2.4C901.2,150.9,902.2,150.2,903.3,150.4L903.3,150.4
			L903.3,150.4z M811.2,222.7c-0.9-1.9-2.9-6-6.5-7c-1.1-0.2-1.8-1.3-1.5-2.4l0.1-0.3l0-0.1l0.2-0.7h0l0,0c0.1-0.3,0.2-0.7,0.3-0.9
			l0,0c0.5-1.3,1.4-2.2,2.8-1.9l0.1,0c3.7,1,4.6-1.9,5.5-4.6c0.4-1.2,0.8-2.4,1.3-3.4c0.2-0.3,0.4-0.6,0.7-0.9c1.5-1,2.4-0.5,3.1,1
			l0,0.1l0.2,0.5h0l0,0c0.4,1,1,2.9,1.3,3.9c1.5,5.5,3.1,5.8,4.3,5.9c0.3,0,0.6,0.1,0.9,0.2l0,0l0.1,0c0.5,0.1,1,0.5,1.3,1
			c1.1,2,0.8,3.2-0.7,4l0,0c-0.7,0.4-1.5,0.5-2.5,0.5c-1.9,0.1-5.3,0.2-6.4,5.6c-0.3,1.5-1.1,2.1-2.5,1.8v0
			C812.2,224.8,811.9,224,811.2,222.7L811.2,222.7L811.2,222.7z M809.7,213.7c1.6,1.3,2.8,2.9,3.7,4.3c1.3-2.5,3.2-3.6,4.9-4.1
			c-1-1.1-2-2.8-2.9-5.6C814.4,211.1,812.9,213.4,809.7,213.7z M923.3,92.4c-0.9,0.6-2.1,0.3-2.7-0.5 M922.2,93.1
			c1.2,0.4,2.3,1,3,2.1c0.9,1.2,1.4,2.9,1.1,5.2c0.5-0.5,1.1-0.9,1.8-1.3c2-1.3,4.3-2.2,6.5-2.6c-0.5-0.3-1-0.6-1.5-1l-0.1-0.1
			c-4.7-3.2-6-4.6-6-7.3c-1.1,1.7-2.3,3.3-3.5,4.2l-0.1,0.1L922.2,93.1z M918.8,96.9c-1.4,0.1-2.3,0.1-2.3,0.1l0,0
			c-0.6,0.9-1.9,1.2-2.8,0.6c-0.8-0.5-1.1-1.5-0.8-2.3l0-0.1v0l0,0l0.1-0.1l-0.1,0.1c0.1-0.9,0.1-1.9,1.2-2.6
			c1.2-0.8,1.8-0.8,2.4-0.9l0.1,0c0.5-0.1,1-0.1,4.4-2.6L921,89c1.7-1.2,3.8-5.2,5.4-8c0.8-1.5,1.6-2.8,2.3-3.6
			c0.3-0.3,0.6-0.5,1-0.6c0.4-0.1,0.7-0.1,1.2,0v0c0.9,0.3,1.5,1.2,1.4,2.2c-0.2,2.4-0.5,4.2-0.8,5.6c-0.6,3.9-0.7,4.5,3.7,7.5
			l0.1,0.1c3.5,2.3,6,3.3,7.2,3.8v0c0.8,0.3,1.3,0.5,1.7,1.1l0.1,0.2c1.5,3,0.1,3-2.9,3c-0.9,0-2.5,0-4.9,0.1l0,0
			c-1.9,0.1-4.3,1-6.2,2.2c-1.6,1-2.9,2.3-3.2,3.5c-0.2,0.9-0.6,1.5-1,1.8l0,0l0,0c-1.2,0.9-2.3,0.7-3.2-0.5l0,0
			c-0.2-0.3-0.4-0.8-0.6-1.2c-0.4-1.3-0.5-3.8-0.2-5.7c0.3-1.4,0.1-2.2-0.2-2.7c-0.2-0.3-0.6-0.5-1.1-0.6
			C920.3,96.8,919.5,96.8,918.8,96.9z M779.5,111.7c0.6,0.7,1.1,1.5,1.6,2.3c1.4-1.3,3.4-1.9,5.3-2c-1.2-1-2.4-2.3-3.1-4.2
			C782.2,109.2,781,110.6,779.5,111.7z M772.5,110.3L772.5,110.3l0.1,0l0,0c0.4-0.1,1-0.3,1.6-0.5c0.7-0.2,1.3-0.5,1.8-0.7
			c2.3-1.1,4.1-3.8,5.3-5.7c1.3-2,2.2-3.5,4-3c1.1,0.2,1.7,1.3,1.5,2.4c-0.8,4.3,2.1,6.2,3.9,7.5c2.2,1.5,3.8,2.6,2.3,4.9
			c-0.4,0.6-1.1,1.1-1.9,1l-0.8,0l0,0c-2.5-0.1-6.8-0.4-7.2,2.4c-0.4,2.4-1.1,3.3-2.7,3.1l0,0c-1.4-0.2-1.7-1.1-2-2.5h0l0,0
			c-0.1-0.3-0.2-0.8-0.4-1.4l0,0c-0.6-1.8-1.7-4.3-4.4-3.5L772.5,110.3z M959,293.8c0.1,0.1,0.2,0.2,0.3,0.1
			C959.6,293.9,959.4,293.9,959,293.8z M890.9,132.6c-0.8,5.9-2.9,11.8-6.3,14.5c-7,5.6-12.2,7-15.9,5.8c-2.4-0.8-4.1-2.5-5.2-4.9
			c-1-2.1-1.4-4.7-1.4-7.3v0c-0.1-5.3,1.6-11.1,4.1-14.4c-1.4-0.4-3.3-0.7-5.5-1c-8.1-0.9-19.6,0-22.8,8.3
			c-6.7,17.3-1.7,24.8,7.5,28.3c6.6,2.6,15.5,3.3,24.1,4.1c5.4,0.5,10.6,0.9,15.3,1.8c3.1,0.6,11.3,8.9,19.5,18.3
			c9.6,11.1,19.5,24.1,20.7,27.7c4,11.9,10.9,24.3,17.7,36.6c7.8,14.2,15.6,28.4,19.2,41.8c0.9,3.4,0.3,5.1-1.5,5.6
			c-3.5,0.9-14.4-13.3-23.4-25.2c-5.5-7.2-10.2-13.5-11.4-14.2c-8.2-5.3-11.3-12-14.7-19.6c-3.9-8.5-8.3-18.3-21.9-28.1
			c-5.9-4.3-11-7.6-16.4-10.2l0,0c-5.4-2.6-11.1-4.5-18.4-5.9c-16.5-3.2-19-5.8-23.1-10.1c-1.9-2-4.1-4.4-8.7-7.4
			c-7.1-4.8-10.1-14.3-10-25.1c0.1-8.6,2-18,5.2-26.7c3.3-8.7,7.9-16.6,13.3-22c5.5-5.5,11.9-8.4,18.6-7.2c3,0.6,5.6,1,8,1.4
			c15,2.6,19.5,3.4,31,18.7C890.9,119.5,891.7,126.2,890.9,132.6z M882,144c2.5-2,4.2-6.8,4.8-11.8c0.7-5.5,0.2-11-1.6-13.4
			c-10.5-14-14.7-14.7-28.5-17.1c-2.4-0.4-5.1-0.9-8.1-1.4c-5.2-1-10.3,1.5-14.9,6.1c-5,5-9.3,12.4-12.4,20.5
			c-3.1,8.2-4.9,17.2-5,25.2c-0.1,9.6,2.4,17.8,8.2,21.7c4.9,3.3,7.4,5.9,9.4,8c3.5,3.7,5.6,6,20.9,8.9c7.7,1.5,13.7,3.4,19.4,6.2
			l0,0l0,0c5.6,2.7,10.9,6.2,17,10.6c14.5,10.5,19.1,20.7,23.2,29.7c3.2,7,6,13.2,13.2,17.9c1.7,1.1,6.7,7.7,12.4,15.2
			c6.6,8.7,14.2,18.7,17.5,22.3c-3.6-12.8-11.1-26.4-18.6-40.1c-6.9-12.5-13.8-25-17.9-37.3c-1.1-3.2-10.6-15.5-19.9-26.3
			c-7.7-8.8-15-16.5-17.2-16.9c-4.4-0.8-9.6-1.3-14.9-1.8c-8.8-0.8-18-1.6-25.2-4.3c-11.4-4.4-17.7-13.4-9.8-33.6
			c4.1-10.6,17.6-11.9,27-10.9c2.7,0.3,5,0.8,6.7,1.2l0,0v0c2.6,0.7,4.1,2,4,3.3l0,0.1c-0.1,0.8-0.5,1.4-1.3,1.8l0,0v0
			c-2.6,1.2-4.4,7.3-4.4,12.9v0c0,2.1,0.4,4.1,1.1,5.7c0.6,1.3,1.5,2.3,2.7,2.7C872.3,149.8,876.2,148.6,882,144z"/>
		<path fill-rule="evenodd" clip-rule="evenodd" fill="#996633" d="M824.7,173.8c14.3,9.6,6.9,12.5,30.2,16.9l19.4,6.2
			c5.6,2.7,10.9,6.2,17,10.6c26.1,18.9,20.3,37.2,36.4,47.6l25,31.3c-4-10.6-10.1-21.6-16.2-32.7c-6.9-12.5-13.8-25-17.9-37.3
			c-1.1-3.2-10.6-15.5-19.9-26.3c-7.7-8.8-15-16.5-17.2-16.9c-4.4-0.8-9.6-1.3-14.9-1.8c-8.8-0.8-18-1.6-25.2-4.3
			c-11.4-4.4-17.7-13.4-9.8-33.6c1.8-4.6,5.4-7.5,9.6-9.1c8.2-4.6,20.5-3.8,26.6-1.8c5.3,1.5,4.4,4.5,2.7,5.2
			c-4.5,2.1-8.9,26.4,4.9,20.4c1.3-0.8,2.7-1.8,4.2-3c2.5-2,4.2-6.8,4.8-11.8c0.7-5.5,0.2-11-1.6-13.4c-10.5-14-14.7-14.7-28.5-17.1
			c-2.4-0.4-5.1-0.9-8.1-1.4c-2.6-0.5-5.2-0.1-7.8,1C819.9,113.9,807.3,162.1,824.7,173.8"/>
	</g>
	<g>
		<path fill-rule="evenodd" clip-rule="evenodd" fill="#996633" d="M212.4,114.5c5,8.1,25.8,24.6,42,37.5
			c10.3,8.2,18.9,15,20.8,17.6c2.4,3.4,4.7,6.1,6.8,8.6c7.1,8.4,11.2,13.3,8.7,29.1c-1.6,9.6-7.6,19.6-13.7,29.8
			c-6.3,10.4-12.8,21.2-14.5,31.7l0,0h0l-0.4,2.2l0,0h0c-1.7,9.8-3.7,21.3,6.6,29.2c5.4,4.1,10.3,6.6,13.9,6c3.3-0.5,5.9-3.8,7.3-11
			c-1.4-2.6-7.5-13.1-16.1-11.6c-3.6,0.6-5.3-0.8-5.8-3.6c-1.1-6.2,7.5-21.4,10.1-26l0.5-1l0-0.1c4.4-7.9,13.5-28,17.6-45.3
			c2.5-10.6,3.2-20.1-0.4-24.6c-3-3.8-4-5.9-4.9-7.9c-1.4-2.9-2.5-5.2-10.9-12.9l-1.5-1.4c-15.4-14.1-21.5-19.6-42.1-30
			c-2.5-1.2-9.2-6.8-12.8-12c-1.3-1.9-2.2-3.8-2.4-5.6c-0.3-2.2,0.3-4.1,2.2-5.5c1.6-1.2,4.3-1.9,8.3-1.9c1.5,0,3.1-0.8,4.3-2.1
			c0.7-0.7,1.2-1.6,1.4-2.6c0.2-0.9,0.1-1.9-0.4-3c-1-2.1-3.5-4.3-8.2-6.4c-0.7,0.1-1.6,0-2.7,0c-4.1-0.2-11.8-0.6-16.2,2.1
			C205.9,96.2,204.7,102,212.4,114.5"/>
		<path d="M253,154.3c-16.5-13.1-37.5-29.8-42.9-38.5c-9.4-15.1-7.1-22.5-1.3-26.1c5.4-3.4,13.9-2.9,18.4-2.7
			c1.2,0.1,1.4,0.5,1.7,0.3c0.5-0.4,1.2-0.5,1.9-0.2c6.1,2.6,9.4,5.6,10.7,8.6c0.9,1.9,1,3.7,0.7,5.4c-0.4,1.7-1.2,3.2-2.3,4.4
			c-1.9,2.1-4.7,3.4-7.2,3.4c-3.1,0-5,0.5-6,1.2c-0.6,0.4-0.8,1.1-0.7,1.8c0.2,1.1,0.8,2.5,1.8,3.9c3.2,4.7,9.1,9.6,11.3,10.7
			c21.1,10.6,27.3,16.2,43,30.6l1.5,1.4c9,8.2,10.3,10.9,11.8,14.1c0.8,1.8,1.8,3.7,4.4,7.1c4.4,5.7,3.9,16.3,1.1,28
			c-4.2,17.7-13.6,38.2-18,46.3l0,0.1l-0.5,1c-2.5,4.4-10.6,18.6-9.7,23.4c0.1,0.4,0.5,0.6,1.3,0.4c12.1-2.2,19.7,12.5,20.5,14.1h0
			l0,0c0.2,0.4,0.3,0.9,0.3,1.4c-1.7,9.7-5.5,14.1-10.7,14.9c-4.9,0.7-10.7-2.1-16.9-6.8c-12.2-9.3-10-22.1-8.1-32.9h0l0.4-2.2h0
			c1.9-11.2,8.6-22.3,15-33.1c6-9.9,11.8-19.6,13.2-28.4c2.3-14-1.4-18.4-7.8-25.9c-2.1-2.5-4.4-5.2-7-8.8
			C271.5,168.9,263.1,162.3,253,154.3 M213.4,113.7c5,8.1,25.8,24.6,42,37.5c10.3,8.2,18.9,15,20.8,17.6c2.4,3.4,4.7,6.1,6.8,8.6
			c7.1,8.4,11.2,13.3,8.7,29.1c-1.6,9.6-7.6,19.6-13.7,29.8c-6.3,10.4-12.8,21.2-14.5,31.7l0,0h0l-0.4,2.2l0,0h0
			c-1.7,9.8-3.7,21.3,6.6,29.2c5.4,4.1,10.3,6.6,13.9,6c3.3-0.5,5.9-3.8,7.3-11c-1.4-2.6-7.5-13.1-16.1-11.6
			c-3.6,0.6-5.3-0.8-5.8-3.6c-1.1-6.2,7.5-21.4,10.1-26l0.5-1l0-0.1c4.4-7.9,13.5-28,17.6-45.3c2.5-10.6,3.2-20.1-0.4-24.6
			c-3-3.8-4-5.9-4.9-7.9c-1.4-2.9-2.5-5.2-10.9-12.9l-1.5-1.4c-15.4-14.1-21.5-19.6-42.1-30c-2.5-1.2-9.2-6.8-12.8-12
			c-1.3-1.9-2.2-3.8-2.4-5.6c-0.3-2.2,0.3-4.1,2.2-5.5c1.6-1.2,4.3-1.9,8.3-1.9c1.5,0,3.1-0.8,4.3-2.1c0.7-0.7,1.2-1.6,1.4-2.6
			c0.2-0.9,0.1-1.9-0.4-3c-1-2.1-3.5-4.3-8.2-6.4c-0.7,0.1-1.6,0-2.7,0c-4.1-0.2-11.8-0.6-16.2,2.1
			C206.8,95.5,205.6,101.2,213.4,113.7z"/>
		<path d="M216.9,126.9c0.2-1.1,1.3-1.8,2.4-1.6c1.1,0.2,1.8,1.3,1.6,2.4c-1.1,5.7,1.6,18.2,5.8,32.2c6.4,21.5,16,46.2,20.4,55.5
			c2.1,4.6,8.1,21.1,11.3,34.8c1.8,7.6,2.8,14.5,1.9,18.3l0.6,0.5c0.8,0.7,0.9,2,0.2,2.9c-0.7,0.8-2,0.9-2.9,0.2l-1.6-1.4l0,0l0,0
			c-0.7-0.6-0.9-1.7-0.4-2.6c1.2-2.1,0.2-8.9-1.7-16.9c-3.2-13.4-9-29.6-11.1-34c-4.4-9.4-14.2-34.4-20.6-56
			C218.5,146.5,215.7,133.3,216.9,126.9"/>
		<path d="M325.2,170.4c-0.8,2.1-1.7,4.2-2.9,5.8c2.3,1.2,6.1,3,9.3,3.8c1.8,0.5,3.3,0.6,3.7,0.2c9.7-9.6,11.9-12.6,11.4-13.1
			c-0.1-0.1-1.6-0.1-3.1,0c-2.1,0.1-4.2,0.2-5.6-0.8c-6.2-4.2-8.9-3.4-10.5-1c-0.9,1.3-1.6,3-2.3,4.8L325.2,170.4z M143.9,223.9
			c-0.5-1-0.2-2.2,0.8-2.8c1-0.5,2.2-0.2,2.8,0.8c1.9,3.5,27.5-4.6,49.3-11.4c13.3-4.2,25.2-7.9,30.5-8.4l0.1,0
			c12.8-1.1,21.9-5.3,31.4-9.7c7.3-3.4,14.9-6.9,24.6-9.4c3.9-1,8.6-1.9,13.4-2.8c6.8-1.3,14-2.7,19.9-4.5c2.1-0.7,3.4-3.8,4.7-6.9
			l0.1-0.2c0.8-2,1.6-3.9,2.7-5.5c2.9-4.3,7.3-6.2,16.2-0.1c0.3,0.2,1.7,0.1,3.1,0.1c2.4-0.1,4.7-0.2,6.2,1.2
			c2.2,2.2,0.5,7-11.4,18.8c-1.7,1.7-4.5,1.7-7.6,0.9c-4.1-1-8.9-3.4-11.1-4.7c-0.1-0.1-0.2-0.1-0.3-0.2c-0.4,0.2-0.8,0.4-1.3,0.5
			c-6.2,1.9-13.5,3.3-20.4,4.6c-4.8,0.9-9.4,1.8-13.2,2.7c-9.4,2.4-16.8,5.8-23.9,9.1c-9.9,4.6-19.3,8.9-32.8,10.1l-0.1,0
			c-4.8,0.4-16.6,4.1-29.6,8.2C174.7,221.7,147.4,230.3,143.9,223.9z"/>
		<path d="M171.8,212.3c2.3,2,4.4,3.7,6,4.8l0,0l0,0c3,2-1.1,9.2-4.1,14.5c-0.8,1.4-1.5,2.7-2,3.6c-0.4,0.9-1.1,1.1-2.3,1.3l0,0
			c-4.3,0.7-24.7,3.9-30.3,13.9l-0.1,0.2c-0.6,0.9-1.9,1.2-2.8,0.5c-0.9-0.6-1.2-1.9-0.5-2.8l0.1-0.1c0.5-1.1,2.9-8.7,4.8-14.8
			c1.3-4.3,2.5-7.9,2.8-8.5c0.5-1-7.2-5.2-13.7-8.8c-6.1-3.3-11.5-6.3-10.6-9l0,0l0.1-0.2c0.4-1,1.6-1.5,2.7-1.1
			c0.7,0.3,5.1-0.1,10.3-0.7c8.3-1,18.5-2.6,20.9-3.2C158.1,200.7,165.6,207,171.8,212.3 M175.6,220.5c-1.7-1.2-4-3-6.4-5.1
			c-5.5-4.6-12.1-10.3-15.2-9.5c-2.6,0.6-13,2.3-21.4,3.3c-2.4,0.3-4.8,0.5-6.7,0.6c1.6,0.7,3.6,1.6,5.8,2.8
			c8.1,4.4,17.6,9.6,15.4,14.2c-0.2,0.3-1.2,3.8-2.5,7.9c-0.7,2.2-1.4,4.6-2.2,6.9c9-6.2,22.5-8.4,26.4-9c0.4-0.8,1-1.8,1.6-2.8
			C172.4,225.7,175.7,220.7,175.6,220.5L175.6,220.5z"/>
		<path fill-rule="evenodd" clip-rule="evenodd" fill="#B3B3B3" d="M335.4,180.3c9.7-9.6,11.9-12.6,11.4-13.1
			c-0.1-0.1-1.6-0.1-3.1,0c-2.1,0.1-4.2,0.2-5.6-0.8c-6.2-4.2-8.9-3.4-10.5-1c-0.9,1.3-1.6,3-2.3,4.8l-0.1,0.2
			c-0.8,2.1-1.7,4.2-2.9,5.8c2.3,1.2,6.1,3,9.3,3.8C333.5,180.6,335,180.8,335.4,180.3"/>
		<path fill-rule="evenodd" clip-rule="evenodd" fill="#FF9933" d="M172.3,218c-5.9-4.9-14.7-13-18.3-12.1l-28.1,3.9
			c5,2.2,14.5,6.9,19,11.4c1-0.4,2.1-0.1,2.6,0.9C148.7,224.1,159.2,221.7,172.3,218"/>
		<path fill-rule="evenodd" clip-rule="evenodd" fill="#FF9933" d="M175.1,221.3c-11.9,3.3-22.5,5.6-27.9,4.5c0,0.3-0.1,0.5-0.3,0.8
			l-4.7,14.8c9-6.2,22.5-8.4,26.4-9L175.1,221.3z"/>
	</g>
	<g>
		<path d="M1144,209.3L1144,209.3C1143.7,209.2,1143.8,209.2,1144,209.3 M1192.3,157.9L1192.3,157.9c-1.9,0.2-3.5,0.7-4.7,1.7
			c-1.1,1-1.9,2.4-2.2,4.5L1192.3,157.9z M1212.8,139c-0.5,0.2-1,0.5-1.4,0.9l-0.1,0.1c-1.1,0.9-2.2,2.1-3,3.4
			C1209.8,141.8,1211.3,140.4,1212.8,139z M1202.5,148.7l0-0.1c-0.1-2.2,0.8-4.8,2.2-7.2c1.1-1.8,2.5-3.4,4.1-4.7l0.1-0.1
			c1.7-1.3,3.6-2.1,5.5-2.2h0c0.8,0,1.7,0.1,2.5,0.4c4.8-4.9,8.3-9,9.7-11.8c-0.9-0.9-2.3-2.4-3.8-3l-0.1,0l-3.6-1.6l0,0h0
			c-6.6-2.9-14.5-6.4-22.3-8.6c-15.1-4.1-30.2-3-36,18.2c-1.5,5.4-2.7,11.7-2.9,17.9c-0.1,6,0.9,11.9,3.9,16.7
			c1.8,3,3.1,4.7,4.2,6.1c1.7,2.3,2.9,3.8,4.8,8.5c3.2-2.9,6.7-6,10.3-9.3c-0.1-1.5,0-3,0.2-4.3c0.5-3.1,1.7-5.5,3.6-7.1
			c1.8-1.6,4.2-2.5,7-2.7c1.4-0.1,3,0,4.6,0.2C1198.6,152.3,1200.6,150.5,1202.5,148.7z M1198.1,174.9c1.5,0.1,3.1-0.2,4.6-1.6l0,0
			l0,0c0.8-0.8,1.4-2.1,1.8-3.6c0-0.2,0.1-0.4,0.1-0.6L1198.1,174.9z M1222.6,152.2c0.6,0.3,1.3,0.6,1.9,0.7c1,0.2,1.9,0.3,2.8,0
			c0.7-0.2,1.3-0.8,1.8-1.6l0.1-0.1c0.4-0.9,0.7-2.1,0.7-3.7c0-0.6-0.1-1.4-0.3-2.3C1227.5,147.4,1225.1,149.8,1222.6,152.2z
			 M1217.8,151.3l0.2-0.2c0.1-0.1,0.3-0.3,0.4-0.4c4-3.9,7.7-7.5,10.7-10.7c0.2-0.5,0.6-0.9,1-1.1c3.9-4.2,6.6-7.7,7.3-9.8
			c-0.8-0.6-1.3-1.7-1.2-3.4c0-1.2-0.6-1.7-1.4-2c-0.4-0.1-0.8-0.2-1.1-0.2h0c-0.4,0-0.9,0.1-1.4,0.2l0,0l0,0h0l0,0l0,0l-0.1,0l0,0
			l0,0c-0.5,0.1-1,0.3-1.5,0.4c-1.6,3.3-5.8,8.3-11.5,14.1c-0.1,0.2-0.3,0.3-0.5,0.5c-9.1,9.2-21.7,20.5-33.3,30.8l-0.5,0.4l0,0
			c-0.1,0.1-0.1,0.1-0.2,0.2c-4.6,4.1-9.1,8.1-13,11.7l0,0l0,0l0,0l0,0c-6.7,6.1-11.9,11.1-14.1,13.9c-1.3,1.7-2.8,3.2-4.3,4.6
			c-2.4,2.3-4.6,4.4-5,7.1l1.2,1.5c0.8,1,1.9,2.4,3.7,4.5c0.2,0.2,0.3,0.4,0.4,0.6l0,0c1.3-1.4,2.8-3.3,4-4.8l0,0l0,0l0,0
			c1.2-1.6,2.2-2.8,2.3-3c4.4-6.2,17-17.7,31-30.3c0.4-1.3,1.2-1.8,2.2-1.9l0.7-0.6c3.7-3.4,7.5-6.8,11.2-10.2l0,0l0,0l0.1-0.1l0,0
			l0,0C1209.4,159.2,1213.8,155.1,1217.8,151.3z M1134.3,224.9c0-1.1,0.9-2,2-2c1.1,0,2,0.9,2,2c0,0.3,0.5,1,1.1,1.7l0.1,0.1
			c0.8,0.9,1.7,1.7,2.3,2.1c1-0.7,2-1.5,2.9-2.3l0.2-0.1c-1.7-1.5-3.4-3.4-4.5-4.7c-0.4-0.4,0.2-0.4-0.2-0.6
			c-1.1-0.4-1.6-1.6-1.2-2.6c0.4-1.1,1.6-1.6,2.6-1.2c0.6,0.2,1.1,0.8,1.9,1.7c1.1,1.2,2.9,3.3,4.4,4.6c1.4-1.5,2.3-2.9,2.5-4.3
			l-0.1-0.1l0,0l0-0.1c-0.1-0.1-0.2-0.3-0.2-0.5c-0.5-1.1-1.7-2.5-2.8-3.9c-1.2-1.5-2.3-2.9-3-4.2c-0.6,0.9-1.3,2-2.5,3.2
			c-1.9,2-5.9,5.5-10.2,9.2c-6,5.2-12.6,10.9-13.5,12.6c-2.9,5.7-4.2,6.7-5.8,7.9c-0.9,0.7-1.9,1.5-3.7,4c-2.5,3.4-4,4.5-5.5,5.6
			l-0.1,0.1c-0.8,0.6-1.6,1.1-2.6,2.2c-0.2,0.2-0.3,0.4-0.4,0.5c-0.1,0.2-0.1,0.4-0.2,0.6c-0.3,2.4,0.2,4.1,1.2,5.1
			c0.6,0.7,1.5,1.1,2.4,1.3c1,0.2,2.2,0.2,3.4-0.1c2.5-0.6,5-2.3,6.3-5c2.7-5.5,6.7-9.2,10.3-12.4c2.3-2.1,4.5-4.1,5.7-6.1
			c1.5-2.5,5.2-5.1,9.2-8l0.1-0.1c-0.7-0.6-1.4-1.2-2-1.9l-0.1-0.1C1135.2,227.8,1134.3,226.2,1134.3,224.9z M1257.3,115.6l-0.2,0.2
			l-0.1,0.1c-0.6,0.5-1.3,1.3-2.3,2.2c-3.7,3.7-9.5,9.3-13.3,11.1c-0.9,3-3.9,7.2-8.3,12.2c0.1,0.5,0.2,1.2,0.3,2l0,0.1
			c0.2,1.4,0.5,3,0.5,4.1c0,2.3-0.4,4.1-1.1,5.6l-0.1,0.2c-1,1.9-2.4,3-4.1,3.6c-1.6,0.5-3.3,0.5-5,0.1c-1.4-0.3-2.8-1-4-1.8
			c-3.5,3.4-7.3,6.9-11.1,10.4c0.3,1.6,0.3,3.4-0.1,5c-0.5,2.2-1.5,4.4-3,5.7l0,0c-3.8,3.5-7.5,2.9-10.2,2.3l-0.2,0
			c-0.2,0-0.3-0.3-0.4-0.6c-14.3,12.9-27.5,24.9-31.7,30.9c-0.1,0.1-0.6,0.8-1.4,1.8c10.7,10.1,27,16.7,44,18.4
			c9.8,0.9,19.7,0.2,29-2.4c9.2-2.6,17.6-7.1,24.3-13.7c8.4-8.2,14.3-19.9,15.8-35.4c0.4-3.8,0.7-6.9,1-9.6c1.3-11.3,2-18,0-33
			c-0.5-3.9-2.5-9.4-5.1-14.8l0-0.1c-1.9-4.1-4.2-8.1-6.4-11.3c-1.1,2-3.2,4.2-6.5,6.4C1257.7,115.3,1257.5,115.4,1257.3,115.6z
			 M1250.5,109.7c-0.8-0.8-0.7-2.1,0.1-2.9c0.8-0.8,2.1-0.7,2.9,0.1c1.3,1.4,2.1,2.9,2.8,4.2l0,0l0,0l0.1,0.1
			c3.1-2.2,4.6-4.2,4.8-5.7c0.1-0.4,0-0.8-0.1-1.2l-0.1-0.2l0,0l0,0l0-0.1c-0.3-0.4-0.7-0.8-1.3-1.1c-1.8-0.9-4.6-0.9-7.4,0.2
			c-2.7,1.1-8,5.5-12.3,10c-2.3,2.4-4.3,4.7-5.3,6.3c0.6,0,1.2,0.1,1.8,0.3c2.1,0.6,3.8,2.1,4.8,5.2c1.2-0.8,2.8-2.1,4.4-3.6
			c-0.5-0.7-1-1.5-1.5-2.4l0,0l0,0c-1.1-1.9-2.2-4.1-2.1-4.7c0.1-1.1,1-2,2.2-1.9c1.1,0.1,2,1,1.9,2.2c0,0.2,0.8,1,1.6,2.3l0,0
			l1,1.7c1.2-1.2,2.4-2.3,3.4-3.3l1.2-1.2l-0.5-0.9l0,0C1252.1,112,1251.4,110.8,1250.5,109.7z M1097.4,252.6
			c1.3-1.5,2.3-2.2,3.3-2.9l0.1-0.1c1.2-0.8,2.4-1.7,4.5-4.6c2.2-3,3.4-4,4.6-4.8c1.2-0.9,2.2-1.7,4.7-6.5
			c1.2-2.4,8.1-8.3,14.4-13.8c4.2-3.6,8.2-7.1,9.9-8.9c1.3-1.4,2.1-2.6,2.6-3.5c1-1.6,1.5-2.5,3-2.3c1-3,3.3-5.1,5.7-7.4
			c1.3-1.3,2.7-2.6,3.9-4.1c2.2-2.9,7.2-7.7,13.6-13.6c-2.1-5.3-3.2-6.7-4.9-9c-1.1-1.4-2.4-3.2-4.4-6.4c-3.4-5.6-4.6-12.2-4.5-18.9
			c0.1-6.6,1.4-13.2,3-18.9c6.6-24.4,23.8-25.7,41-21.1c8.1,2.2,16.1,5.8,22.9,8.8l0,0l3.6,1.6l0.1,0.1c2.2,1,4.1,2.9,5.1,4l0.3-0.1
			c0.9-2.7,3.7-6.4,7.1-9.9c4.6-4.8,10.5-9.6,13.7-10.9c3.9-1.6,8-1.4,10.7-0.1c1.3,0.6,2.4,1.6,3.1,2.7l0.2,0.3
			c3.1,3.8,6.8,9.9,9.7,16l0,0.1c2.7,5.7,4.9,11.6,5.4,15.9c2.1,15.5,1.3,22.4,0,34c-0.3,2.9-0.7,6.2-1,9.6
			c-1.6,16.6-7.9,29-17,37.9c-7.3,7.1-16.3,11.9-26.1,14.7c-9.7,2.7-20.2,3.5-30.5,2.5c-17.7-1.7-34.8-8.6-46.1-19.2
			c-0.9,1.2-1.9,2.3-2.8,3.3c-0.5,0.6-1.1,1.1-1.5,1.6c0,3.8-3.2,7.5-7.4,10.9c-2,1.7-4.4,3.4-6.6,5c-3.7,2.6-7,5.1-8.1,6.8
			c-1.5,2.5-3.9,4.7-6.4,7c-3.3,3-7,6.5-9.4,11.2c-1.9,3.8-5.4,6.3-9,7.2c-1.8,0.4-3.6,0.4-5.2,0.1c-1.7-0.4-3.3-1.2-4.5-2.5
			c-1.8-1.9-2.7-4.7-2.3-8.4c0.1-0.7,0.3-1.3,0.5-1.8C1096.7,253.6,1097,253.1,1097.4,252.6z"/>
		<path fill-rule="evenodd" clip-rule="evenodd" fill="#B3B3B3" d="M1192.8,179.8l-22.2,20.6l-5.3,5.7l-3.6,4.5
			c16.9,16.1,48.1,23.3,73.5,15.9c7.7-2.7,14.7-6.8,20.5-12.5c8.4-8.2,14.3-19.9,15.8-35.4c0.4-3.8,0.7-6.9,1-9.6
			c1.3-11.3,2-18,0-33c-0.5-3.9-2.5-9.4-5.1-14.8l0-0.1c-1.7-3.5-3.6-7-5.5-10l-4.5,4.4l-15.9,13.6c-0.9,3-3.9,7.2-8.3,12.2
			c0.5,4,2.7,13-4.5,15.4l-1.1-0.2c-0.7,0.5-1.4,0.9-2.2,1.2c-1.6,0.5-3.3,0.5-5,0.1c-0.9-0.2-1.8-0.5-2.6-1c-2.9,2.8-6,5.7-9.2,8.5
			l-3,10.8c-1.7,1.5-3.7,2.4-5.6,2.7C1197.3,180.4,1194.8,180.2,1192.8,179.8"/>
		<path fill-rule="evenodd" clip-rule="evenodd" fill="#B3B3B3" d="M1187.3,155.1c2-1,4.5-1.4,7.4-1.2c1.5-1.4,3.1-2.8,4.5-4.2
			l0-0.1c-0.1-2.2,0.8-4.8,2.2-7.2c1.1-1.8,2.5-3.4,4.1-4.7l0.1-0.1c1.5-1.2,3.3-2,5-2.1c1.4-0.7,2.9-1.1,4.4-1.1
			c4.1-4.3,7.1-7.9,8.4-10.4c-0.9-0.9-2.3-2.4-3.8-3l-0.1,0l-3.6-1.6l0,0h0c-6.6-2.9-14.5-6.4-22.3-8.6c-6.3-1.7-12.6-2.5-18.2-1.3
			c-6.3,2.4-11.6,8-14.4,18.5c-2.8,10.5-5.1,24.8,1,34.6l8.2,13.3c2.5-2.2,5.1-4.6,7.8-7c-0.1-1.5,0-3,0.2-4.3
			c0.5-3.1,1.7-5.5,3.6-7.1C1183.2,156.2,1185.1,155.4,1187.3,155.1"/>
		<path fill-rule="evenodd" clip-rule="evenodd" fill="#CC6633" d="M1141.4,217.3c0.5,0.2,1,0.5,1.5,1c0.2,0,0.5,0,0.7,0.1
			c0.6,0.2,1.1,0.8,1.9,1.7c0.7,0.8,1.7,1.9,2.7,3l2.2-4l-4.7-6.7c-0.5,0.7-1.1,1.5-2,2.4C1143.2,215.6,1142.4,216.4,1141.4,217.3
			 M1138.5,231.3l-4.2-6.4c0-2.3,3.1-2.6,3.9-0.9h0.1c1.1,0,2,0.9,2,2c0,0.3,0.5,1,1.1,1.7l0.1,0.1c0.2,0.3,0.5,0.5,0.7,0.7l2.8-2.2
			c-1.7-1.5-3.4-3.4-4.5-4.7c-0.4-0.4,0.2-0.4-0.2-0.6c-0.8-0.3-1.2-1-1.3-1.7c-1.6,1.4-3.5,3-5.4,4.7c-6,5.2-12.6,10.9-13.5,12.6
			c-2.9,5.7-4.2,6.7-5.8,7.9c-0.9,0.7-1.9,1.5-3.7,4c-2.5,3.4-4,4.5-5.5,5.6l-0.1,0.1c-0.8,0.6-1.6,1.1-2.6,2.2
			c-0.2,0.2-0.3,0.4-0.4,0.5c-0.1,0.2-0.1,0.4-0.2,0.6c-0.3,2.4,0.2,4.1,1.2,5.1l0.1,0.1c3.3,1.1,8.2-1,10.1-4.9
			c4.4-9.1,12.9-13.5,16-18.6L1138.5,231.3z"/>
		<path fill-rule="evenodd" clip-rule="evenodd" fill="#996633" d="M1148,207.8l5.3,6.6l6.4-7.9c4.4-6.2,17-17.7,31-30.3l2.8-2.6
			l24.3-22.3c2.8-3.6,17.5-15.9,19.6-22.2c-2.7-2,1.4-7.5-6.9-4.8c-7.2,15.1-63.4,59-73.3,71.8C1154,200.5,1148.7,203.6,1148,207.8"
			/>
		<path fill-rule="evenodd" clip-rule="evenodd" fill="#996633" d="M1244,118.9c-5.5-8.2,2.1-7.6,1.9-4.4c0,0.2,0.8,1,1.6,2.3l1,1.7
			l4.6-4.5l-0.5-0.9c-0.6-1.1-1.3-2.3-2.2-3.3c-1.7-1.8,1.3-7.5,5.8,1.4l0.1,0.1c10.2-7.2,2.3-10.7-4.1-8.1l-17.6,16.3l6.5,5.4
			c1.2-0.8,2.8-2.1,4.4-3.6L1244,118.9z"/>
	</g>
	<g>
		<path d="M229.3,464.4c2.7,0.2,7,0.6,8.6,1l0.1,0c1.4,0.4,3.7,0.5,6.2,0.7c0.9,0,1.8,0.1,2.7,0.2l0.8-2.7c1.2-3.8,1.3-4.3,2.1-11.2
			l0,0c0.1-0.7-0.1-0.8-0.6-0.9h0l-1.2-0.1h0c-0.7-0.1-1.5-0.1-2.5-0.3l0,0v0l-0.9-0.1c-2.4-0.3-8.3-1.1-12.9-1.1
			c-2.4,0-4.3-0.1-4.3-0.1c0,1.7,0.5,7.1,1.3,11.5C228.9,462.5,229.1,463.6,229.3,464.4 M218.4,467.2c1.4-1.6,3.8-2.8,6.7-3
			c-0.1-0.7-0.3-1.4-0.4-2.2c-0.8-4.6-1.3-10.4-1.3-12.2c0-3.1,3.7-4,8.4-4c4.8,0,10.9,0.8,13.4,1.2l0.9,0.1v0
			c0.9,0.1,1.7,0.2,2.3,0.2l1.3,0.1c3.7,0.4,4.7,1.2,4.2,5.4l0,0c-0.9,7.2-1,7.7-2.3,11.9l-0.6,1.9c0.7,0.1,1.4,0.3,2,0.4v0
			c4.1,1.1,6.6,3.4,5.3,8.2c-0.8,2.7-4.1,3.8-8.2,4.1c0.1,1.1,0.1,2.4,0.1,3.9c0,9.4-1.2,25.8-2.3,30.2c0,0.1-0.8-0.1-0.5,0
			c0.6,0.1,1.8,0,3.3-0.1c7.2-0.7,20.2-2,30.5,16.4c6,10.7,8.1,22.5,6.3,33.6c-1.7,11-7.1,21.5-16,29.8l-0.1,0.1
			c-7.6,7.1-19.4,9.7-31.9,9.6c-16.5,0-34.3-4.6-45.4-9.5c-6.7-2.9-10.5-8.6-11.9-15.8c-1.3-6.5-0.7-14.1,1.4-21.7
			c2.1-7.5,5.8-15.1,10.5-21.5c7.6-10.4,18.2-17.7,29.9-17.4c0.7,0-0.4-11-0.1-21.6c0.2-7.1,0.4-14,0.8-17.9
			c-3.2-0.7-5.3-1.9-6.5-3.3c-1-1.2-1.4-2.4-1.3-3.7l0-0.1C217,469.4,217.5,468.2,218.4,467.2z M226.3,468.3
			c-2.2-0.2-3.9,0.5-4.8,1.6c-0.3,0.3-0.5,0.7-0.5,1.1c0,0.3,0.1,0.6,0.4,0.9c1.2,1.4,4.3,2.5,10.2,2.5c1.1,0,3,0.2,5.2,0.4
			c2.5,0.3,5.6,0.6,8.4,0.8c0.3,0,0.6-0.1,0.7-0.2c0.4-0.4,0.9-0.6,1.4-0.6v0c0.8-0.1,1.4,0.3,1.9,0.9c2.8,0,4.9-0.4,5.1-1.3
			c0.5-1.8-0.7-2.7-2.5-3.2l0,0v0c-1.9-0.5-4.5-0.7-7-0.9c-0.7,0.1-14.6-1.7-18.2-1.3C226.6,468.8,226.4,468.6,226.3,468.3z
			 M228.7,478.3c-0.4,3.6-0.6,10.4-0.8,17.4c-0.4,12.5,1.5,25.5-1.8,25.4c-10.3-0.3-21.9,6.5-28.9,15.9c-4.4,6-7.9,13.1-9.9,20.2
			c-2,7-2.6,14-1.3,19.8c1.2,5.9,4.3,10.5,9.6,12.9c10.7,4.7,27.9,9.1,43.8,9.1c11.6,0,22.4-2.3,29.2-8.6l0.1-0.1
			c8.2-7.7,13.2-17.3,14.8-27.5c1.6-10.3-0.3-21.2-5.9-31c-9-16.1-20.3-15-26.5-14.4c-1.9,0.2-3.5,0.3-4.7,0
			c-2.3-0.6-3.2-1.9-2.5-4.9c1-4.2,2.1-20.1,2.2-29.2c0-1.5,0-2.8-0.1-3.9c-0.7,0-1.4,0-2.1-0.1c-3.4,0.1-7.7-0.4-11.3-0.8
			c-0.3,0-0.7-0.1-1-0.3l-0.1,0C230.6,478.4,229.6,478.4,228.7,478.3z"/>
		<path fill-rule="evenodd" clip-rule="evenodd" fill="#FF9933" d="M205.4,546.7c-5.5-1-13.7,20-10.4,28.7
			c6.4,17.1,36.5,15.5,52.5,14.7c5.7-0.3,27.1-15.1,26.2-21.4c-0.7-5.4,12-24.2-8.3-24.2c-10.6,0-10.3,8.9-15.5,6.3
			c-11.2-5.6-5.4-8-20.2-1c-6.4,3-14.2-4.7-14.4-4.7C211.7,544.9,207.1,547,205.4,546.7"/>
		<path d="M203.4,545c0.8-0.3,1.6-0.4,2.3-0.2c0.4,0.1,1.6-0.2,3-0.6c2-0.5,4.4-1.2,6.6-1.1l0.1,0c0.6,0,1,0.3,1.6,0.8
			c1.6,1.3,7.5,6.1,11.9,4l1.1-0.5l0.1-0.1c6-2.9,8.4-4,10.5-3.9c1.7,0.1,2.6,0.8,4.2,1.9c1.2,0.9,2.9,2.1,5.9,3.6
			c1.1,0.6,1.9-0.3,3-1.4c2.2-2.2,5.1-5.1,11.6-5.1c10.7,0,13.5,4.7,13.5,10.4c0,3.3-1.1,6.9-2.1,10.1c-0.7,2.3-1.3,4.3-1.3,5.3
			l0,0.2l0,0.2h0l0,0.1c0.2,3.9-5.1,9.6-11.3,14.3c-6,4.6-13,8.5-16.3,8.9l-0.1,0l-0.1,0c-0.1,0-0.2,0-0.4,0h0v0
			c-16.6,0.9-47.5,2.4-54.3-16c-1.1-3-1.1-7.2-0.3-11.4c0.8-4.2,2.3-8.6,4-12.1c1.8-3.7,4.1-6.5,6.3-7.4L203.4,545z M205,548.6
			c-0.1,0-0.2,0-0.3,0.1l-0.1,0c-1.3,0.6-2.8,2.7-4.3,5.6c-1.6,3.2-3,7.2-3.7,11.1c-0.7,3.6-0.8,7.1,0.1,9.4
			c5.8,15.7,35,14.2,50.6,13.4h0l0.1,0h0l0.1,0c2.7-0.4,8.9-3.9,14.4-8.1c5.3-4,9.8-8.5,9.8-10.9h0l0-0.2l0-0.1
			c-0.2-1.8,0.6-4.2,1.4-6.9c0.9-2.9,1.9-6.1,1.9-8.9c0-3.6-2-6.5-9.6-6.5c-4.9,0-7.2,2.2-8.9,4c-2.2,2.3-3.9,3.9-7.5,2.1
			c-3.2-1.6-5.1-2.9-6.4-3.9c-1-0.7-1.6-1.2-2.1-1.2c-1.1-0.1-3.3,1-8.7,3.5l-0.1,0.1l-1.1,0.5c-6.5,3.1-13.8-2.7-15.9-4.5
			c-1.5,0-3.3,0.5-4.9,0.9C207.8,548.4,206.2,548.9,205,548.6z"/>
		<path fill-rule="evenodd" clip-rule="evenodd" d="M251.2,524c-1.4,1.3-3.2,1.8-0.8,4.5c0.5,0.5,3.3,1.3,3.8-1.3
			C254.8,523.7,252.5,522.8,251.2,524"/>
		<path fill-rule="evenodd" clip-rule="evenodd" fill="#E6E6E6" d="M250.4,528.4c-2.3-2.6-0.6-3.1,0.8-4.5c1.3-1.2,3.6-0.3,2.9,3.1
			C253.6,529.8,250.8,529,250.4,528.4 M250.7,549c2.9,1.5,3.9-6.5,14.6-6.5c22.8,0,9.8,20.8,10.2,26.2c0.5,8-22.4,23.3-28.2,23.3
			c-20.2,1-60.1,2.4-54.6-27.4c1.2-6.3,4.9-17.2,10.5-19.6l12-1.9c2.5,0.1,7.1,8,14.7,4.3C244,540.4,240.4,543.9,250.7,549z
			 M257.3,517.5c-4.9-0.4-9.1,0.5-11.5,0c-1,0.1-1.9,0.1-2.7-0.1c-2.3-0.6-3.2-1.9-2.5-4.9c1-4.2,2.1-20.1,2.2-29.2
			c0-1.5,0-2.8-0.1-3.9c-0.7,0-1.4,0-2.1-0.1c-3.4,0.1-7.7-0.4-11.3-0.8c-0.2,0-0.4-0.1-0.6-0.1h0c-0.4,3.6-0.6,10.4-0.8,17.4
			c-0.4,12.5,1.5,25.5-1.8,25.4c-33.4-0.9-54.4,58.3-30.5,68.8c8.2,3.6,21.2,7.3,34.4,8.7c2,0.1,4.1,0.2,6.1,0.2
			c11.6,0,22.4-2.3,29.2-8.6l0.1-0.1c8.2-7.7,13.2-17.3,14.8-27.5c1.6-10.3-0.3-21.2-5.9-31C268.9,522,262.7,518.6,257.3,517.5z"/>
		<path fill-rule="evenodd" clip-rule="evenodd" fill="#CC6633" d="M229.3,464.4l14.3,1.5l0.8-2.6c1.2-3.8,1.3-4.3,2.1-11.2l0,0
			c0.1-0.7-0.1-0.8-0.6-0.9h0l-1.2-0.1h0c-0.6-0.1-1.3-0.1-2.1-0.2l-15.2-1.1L229.3,464.4z"/>
		<path fill-rule="evenodd" clip-rule="evenodd" fill="#B3B3B3" d="M248.4,470.8l-21.7-1.8l-0.2-0.3c-1.3-0.1-2.4-0.1-3.1,0
			l-0.1-0.1c-3.3,1.1-3.9,4.5,3.5,5.4c0.5,0,0.9,0,1.4,0c0.9,0,2.2,0.1,3.9,0.3l10.5,0.7l0,0c0.4-0.4,0.9-0.6,1.4-0.6v0
			c0.8-0.1,1.4,0.2,1.8,0.8l0.1,0c0.4-0.4,0.9-0.6,1.4-0.6c0.6,0,1.1,0.1,1.5,0.5c1.3-0.2,2.1-0.6,2.3-1.2c0.5-1.8-0.7-2.7-2.5-3.2
			l0,0v0L248.4,470.8z"/>
	</g>
	<g>
		<path d="M563.4,579.8c-0.3,0.1-0.1,0,0.2,0L563.4,579.8L563.4,579.8z M618.6,581.2l-0.4,0.4l-1,1c1.3,1.1,2.7,3.3,4.1,5.8
			c2,3.5,3.8,8,4.8,10.6c0.2,0,0.2,0,0.2,0c0.3-0.6,0.7-1.5,1.6-2.6c0.9-3,2.8-4.2,5.1-4.5c-0.2-0.3-0.4-0.7-0.6-1
			c-0.4-0.8-0.8-1.6-0.9-1.6c-0.6-0.4-1-1-1-1.8c0-0.6-3.1-6-5.6-9.6c-0.3-0.4-0.6-0.8-0.9-1.2C622.6,578.9,620.5,580.2,618.6,581.2
			z M612.9,554.8c-0.2,0.6-0.6,1-1.2,1.3l0,0l0,0c-0.4,0.2-0.8,0.2-1.3,0.1l-0.1,0c-5.6-0.9-9.1-2.4-11.5-3.6
			c-0.8-0.2-1.4-0.3-1.7-0.3c-0.3,0-0.6,1.4-1,3l-0.2,1l0,0.1c-0.3,1.7-0.6,3.8-1.1,6.3l0,0.1l0,0l0,0.2l0,0.2
			c-0.4,2.8-0.6,4.1-1.3,5.2l0,0l0,0c-0.6,1-1.3,1.5-2.6,2.3l0,0l0,0c-0.7,0.5-1.7,1.1-3.1,2.2c-4.3,3.3-7.9,3.9-12,4.6v0l0,0
			c-1.8,0.3-3.7,0.6-5.9,1.3c-2.1,0.6-3.9,0.8-5.2,0.9l-0.6,0.1c1.6,4.4,3.7,3.7,6,2.9c2.8-1,5.9-2,9.4,0.2
			c6.1,3.8,11.7,1.9,17.4-0.1c4.6-1.6,9.3-3.2,14.6-2.4c0.7-0.8,1.8-1.3,3.2-1.9c0.4-0.2,0.9-0.4,1.3-0.6c1.8-1.8,3.8-3.7,5.2-4.4
			l0,0l0,0c0,0,0.6-1.5,1.3-3.2c1.1-2.7,2.1-5.9,2.2-6.8c0.4-4.1,2.7-7.7,4.8-11c1.9-3,3.5-5.6,2.8-6.8l0,0l0,0
			c-0.4-0.7-0.7-1.4-0.9-2.2h0l0,0c-0.8-2.8-0.1-5.8,1-8.3c1.1-2.5,2.8-4.5,4.2-5.3l0,0l0,0c0.2-0.1,0.5-0.3,0.8-0.4l0.2-0.1
			c0.3-0.1-0.4-0.1-0.4-0.3c-0.2-0.9-0.9-2.1-1.4-3l-0.2-0.4c-1,0.9-1.9,1.6-2.7,2.2l-0.1,0c-2,1.5-3.2,2.5-3.8,6.3
			c-0.7,4.5-1.3,5.3-1.8,6.2l0,0l0,0c-0.1,0.2-0.3,0.4-0.4,0.9c-1.7,5.2-4.3,7.2-7.1,9.3c-1.3,1-2.7,2.1-3.9,3.5
			C615.5,554.6,614.4,554.8,612.9,554.8z M588.2,567.6c-4.2-4.9-12.1-13.5-20.6-22.8c-14.4-15.7-30.4-33.2-32.7-37.3
			c-1.9-3.3-8.8-9.9-16-16.7c-9.9-9.4-20.3-19.2-19.6-23.4c2.3-12.9,2.4-18.4,2.5-25.2c0.1-3.8,0.2-8.1,0.6-14
			c0.7-8.7,2.2-11.1,6.7-10.8c1.6,0.1,3.6,0.8,6.1,1.6c3.4,1.1,7.9,2.6,14,3.6c24.9,4,25.3,5.2,28.4,15.1c1.3,4.3,3.3,10.4,8.8,19.7
			c4.2,7,6.5,11.7,8.7,16.2c3.3,6.9,6.3,13.1,15.6,25.8c2.7,3.6,13.5,27.4,19,42.2c1.3,3.4,2.3,6.3,2.8,8.5c0.1,0.4,0.2,0.8,0.3,1.2
			c1.5-1.7,2.9-2.8,4.3-3.9c2.3-1.8,4.4-3.4,5.7-7.4c0.3-0.9,0.6-1.3,0.8-1.8l0,0c0.3-0.5,0.6-1,1.2-4.6c0.9-5.4,2.6-6.7,5.4-8.9
			l0.1,0c1.1-0.8,2.4-1.8,3.9-3.4l0,0l0,0c0.9-0.9,2-0.9,3,0c0.1,0.1,0.1,0.1,0.2,0.2c0.4,0.5,1.1,1.4,1.8,2.4
			c0.8,1.2,1.6,2.7,1.9,4.1c0.7,2.4,0.2,4.5-2.4,5.3l0,0c-0.7,0.4-1.7,1.7-2.5,3.4c-0.8,1.7-1.2,3.7-0.8,5.5h0
			c0.1,0.4,0.3,0.8,0.5,1.2l0,0c2,3.4-0.3,7-2.9,11.1c-1.8,2.9-3.9,6.1-4.2,9.3c-0.1,1.1-1.3,4.9-2.5,7.9c-0.2,0.4-0.3,0.8-0.5,1.1
			l0.3,0.3c0.6,0.6,1.3,1.5,2,2.5c2.3,3.2,4.9,8.2,5.9,10.7c0.7,0.7,1.2,1.7,1.8,2.7c0.5,1,1.1,2.1,1.3,2.1c0.6,0.2,1,0.7,1.2,1.2
			c0.8,0.2,1.7,0.3,2.5,0.5c1,0.2,2,0.4,2.8,0.6v0c0.7,0.1,1.4,0.4,2,0.9c1.9,1.4,3.8,4.7,5.2,8c1.3,3.3,2.2,6.8,1.9,8.7l0,0.1
			c-0.1,0.5-0.2,1-0.5,1.4l-0.1,0.2c-1.5,2-2.5,3.7-3.2,5c-3.3,5.5-3.6,6.1-15.4,4.2l0,0c-1.1-0.2-2.7-1.9-4.3-4
			c-2.1-2.8-4.6-6.7-5.5-8.2c-0.1-0.2-0.2-0.3-0.3-0.5l0-0.1l0,0c-0.2-0.5-0.2-1.1,0.1-1.7l0.2-0.4c0.2-1.6,0.7-2.8,1.1-3.9
			c-0.2,0-0.4-0.1-0.7-0.1l-0.1,0l0,0c-1.5-0.5-1.9-1.3-1.3-2.9c-0.1-0.2-2.7-5.2-5.2-9.6c-1.4-2.4-2.6-4.5-3.2-4.7
			c-0.7-0.3-1.2-0.7-1.7-1c-5-1.4-9.8,0.3-14.5,1.9c-6.7,2.3-13.2,4.5-20.9-0.3c-1.8-1.2-3.9-0.4-5.9,0.2c-4.4,1.5-8.2,2.8-11.2-5.5
			c-1.1-3-0.5-4.2,1.6-5l0.2-0.1c0.6-0.2,1.3-0.3,2.2-0.3c1.1-0.1,2.7-0.3,4.5-0.8c2.3-0.7,4.4-1,6.4-1.3v0
			c3.6-0.6,6.8-1.2,10.2-3.8C586.6,568.7,587.5,568.1,588.2,567.6z M593.7,548.7c-0.9-1.3-1.6-2.6-2.3-3.7l0,0l0-0.1l0,0l0,0
			c-4.3-7.8-13-17.4-20.4-25.7c-6.7-7.5-12.5-13.9-13.7-17.6c-4.7-14.2-16.7-30.2-27.9-44.9c-9.7-12.9-18.8-24.9-21.8-34.2
			c-0.5,1-0.8,2.9-1,6.2c-0.4,6-0.5,10.1-0.6,13.8c-0.2,7.1-0.3,12.7-2.6,25.9c-0.4,2,9.2,11,18.3,19.7c7.4,7,14.6,13.8,16.8,17.6
			c2.1,3.6,17.9,20.9,32.2,36.5c7.7,8.4,14.9,16.3,19.3,21.3l1-1.8l0.3-1.9l0,0h0l0-0.2l0-0.1c0.1-0.7,0.3-1.7,0.5-2.9l0,0l0.1-0.9
			l0,0C592.7,552,593,549.9,593.7,548.7z M511.9,422.3c3.1,8.5,11.6,19.8,20.8,31.9c11.3,15,23.6,31.3,28.5,46.1
			c0.9,2.9,6.5,9,12.9,16.1c7.6,8.4,16.4,18.2,20.9,26.4l0,0l0,0.1l0,0l0,0c0.8,1.5,1.9,3.4,3.1,4.7c0.4,0.2,0.9,0.4,1.5,0.7
			l0.6,0.3l0.5,0.1c2.2,0.5,5.3,1.2,7.8,1.8c-0.6-2-1.4-4.6-2.6-7.5c-5.4-14.5-15.9-37.7-18.5-41.2c-9.5-13-12.6-19.3-16-26.4
			c-2.1-4.4-4.4-9.1-8.5-15.9c-5.8-9.7-7.8-16.1-9.2-20.5c-2.4-7.8-2.7-8.7-25.1-12.3c-6.4-1-11.1-2.6-14.6-3.7
			C513.3,422.8,512.6,422.5,511.9,422.3z M627.7,608.1c0.9,1.4,3,4.6,4.9,7.1c1,1.4,1.5,2.4,1.6,2.4l0.1,0c9,1.4,9.3,1.1,11.3-2.3
			c0.8-1.3,1.8-3,3.3-5.1c0.2-1.2-0.6-3.8-1.6-6.5c-1.1-2.7-2.6-5.3-3.8-6.2l-0.2-0.1l0,0v0c-1-0.2-2-0.4-3-0.6
			c-1.3-0.3-2.6-0.6-3.9-0.7l-0.6,0.1v0c-0.6,0.2-1.5,0.4-2.5,1.1c-0.7,0.4-1.2,0.9-1.6,1.2c-0.4,1.6-1,2.7-1.8,3.9l0,0l0,0
			c-0.8,1.4-1.7,2.9-2,5.3C627.8,607.9,627.8,608,627.7,608.1z"/>
		<path fill-rule="evenodd" clip-rule="evenodd" fill="#B3B3B3" d="M555.6,444.4c-1.1-3-1.7-5.3-2.4-7.2l0.6,1.8
			C554.3,440.6,554.9,442.4,555.6,444.4 M513.1,425.2c9,19.4,39.6,49.6,48,75.1c2,6,25.9,28.3,33.8,42.6l0.1,0.1
			c3,5.4,3.8,5.6,9,6.6c-0.5-1.6-1.2-3.4-1.9-5.4c-5.4-14.5-15.9-37.7-18.5-41.2c-9.5-13-12.6-19.3-16-26.4
			c-2.1-4.4-4.4-9.1-8.5-15.9c-5.8-9.7-7.8-16.1-9.2-20.5c-2.4-7.8-2.7-8.7-25.1-12.3C520,427.2,516.2,426.1,513.1,425.2z"/>
		<path fill-rule="evenodd" clip-rule="evenodd" fill="#B3B3B3" d="M557.3,501.6c-8.8-26.6-43.2-59.1-49.6-79.1l-1.7,20
			c-0.2,7.1-0.3,12.7-2.6,25.9c-0.7,3.8,30.6,29.4,35.1,37.3l51.5,57.9l1.3-3.6l2.4-11.1c-0.9-1.3-1.6-2.6-2.3-3.7l0-0.1
			C585.4,532.8,559.7,509,557.3,501.6"/>
		<path fill-rule="evenodd" clip-rule="evenodd" fill="#996633" d="M632.5,528.2c-1.8,1.4-2.9,2.6-3.4,6c-0.1,0.8-0.2,1.4-0.4,2
			c1.1-2.5,2.8-4.5,4.2-5.3l0,0l0,0c0.2-0.1,0.5-0.3,0.8-0.4l0.2-0.1c0.3-0.1-0.4-0.1-0.4-0.3C633.2,529.7,632.9,528.9,632.5,528.2
			 M632.2,544.8l-0.6-1.4l0,0.1h0c0.1,0.4,0.3,0.8,0.5,1.2l0,0L632.2,544.8z M596.7,554.6l-3,13.8l-2.6,2.3c-3.6,1.8-4.4,3.6-12,5.5
			c-2.5,1.1-4.8,1.2-7.5,1.7v0l0,0c-1.8,0.3-3.7,0.6-5.9,1.3c-0.6,0.2-1.1,0.3-1.7,0.4c1.1,2.7,3.1,3.9,4.7,3.6l0.7-0.2l0,0l0,0
			c2.7-0.8,6.1-2.8,10.3-0.1c4.4,2.8,8.6,2.5,12.8,1.4l0.7-0.2c1.8-0.6,3.7-1.3,5.6-1.8c3.5-1.2,7.2-2.2,11.1-2.1
			c0.3-0.2,0.7-0.3,1.1-0.5c0.4-0.2,0.9-0.4,1.3-0.6c1.8-1.8,3.8-3.7,5.2-4.4l0,0l0,0c0,0,0.6-1.5,1.3-3.2c1.1-2.7,2.1-5.9,2.2-6.8
			c0.4-4.1,2.7-7.7,4.8-11c1.9-3,3.5-5.6,2.8-6.8l0,0l0,0c-0.4-0.7-0.7-1.4-0.9-2.2h0l0,0c-0.4-1.5-0.4-3.1-0.2-4.6l-0.3,0.4
			c-2.3,3.8-0.6,4.9-7.5,10.2c-4.5,3.5-3.3,4.2-6.9,4.2l-1.2,1.3l-0.8-0.2c-0.5,0.1-1.1,0.1-1.9,0.1c-0.2,0.6-0.6,1-1.2,1.3l0,0l0,0
			c-0.4,0.2-0.8,0.2-1.3,0.1l-0.1,0C602.1,556.7,599,555.6,596.7,554.6z"/>
		<path fill-rule="evenodd" clip-rule="evenodd" fill="#CC6633" d="M621.4,579.5c-0.9,0.7-1.9,1.2-2.8,1.7l-1.4,1.4l9,16.5
			c1-2,1.9-2.1,3.3-5.4c-0.2-0.3-0.7-1.2-0.9-1.5C626.3,587.9,624.1,583.4,621.4,579.5"/>
		<path fill-rule="evenodd" clip-rule="evenodd" fill="#CC6633" d="M648.9,609.2c0-1.1-0.5-2.7-1.6-5.4
			C648,605.7,648.6,607.6,648.9,609.2 M632.6,597.2c-1.5,1.1-2.2,2.5-3.2,5.1l-2.1,5.6l7,9.7c2.8,0.4,4.8,0.7,6.2,0.8
			c0.4-0.5,0.8-1.1,1.2-1.9c0.8-1.3,1.8-3,3.3-5.1c0.2-1.2-0.6-3.8-1.6-6.5c-1.1-2.7-2.6-5.3-3.8-6.2l-0.2-0.1l0,0v0
			c-1-0.2-2-0.4-3-0.6C635.2,597.7,633.6,597.4,632.6,597.2z"/>
	</g>
	<g>
		<path d="M879.7,440.8c0.3,0.3,0.8,0.6,1.3,0.7c3.3,0.6,6,1.7,8.1,3.5c2.1,1.8,3.6,4.3,4.4,7.6l0,0.1v0l0,0
			c0.1,0.4,0.1,0.8,0.1,1.3c0,0.7,0,1.5,0.2,2l0,0c0,0,0.2-0.1,0.6-0.3c0.2-0.3,0.3-1.5,0.2-2.7c-0.1-1.7-0.4-3.4-0.8-4.4
			c-0.1-0.2-0.1-0.3-0.2-0.3h0c-0.7-0.8-1.1-1.5-1.4-2.2c-0.6-1.1-1.2-2.2-3.3-3.2c-0.7-0.3-3.5-1.1-6.1-1.7
			C881.3,440.9,880,440.7,879.7,440.8 M876.3,439c0.4-0.7,1.1-1.3,2.1-1.6c1-0.4,3-0.2,5.1,0.3c2.8,0.6,6.1,1.5,6.9,1.9
			c3.2,1.5,4.1,3.2,5,4.8c0.3,0.5,0.6,1.1,1,1.5l0,0c0.3,0.3,0.6,0.8,0.8,1.3c0.6,1.4,1.1,3.7,1.1,5.8c0.1,2.4-0.3,4.7-1.5,5.7
			c-0.2,0.2-0.4,0.3-0.6,0.4l0,0l-0.1,0.1c-3.1,1.4-4.7,0.4-5.5-1.4l-0.1-0.1c-0.5-1.1-0.5-2.4-0.5-3.4l0-0.6
			c-0.6-2.5-1.7-4.4-3.2-5.7c-1.6-1.3-3.7-2.2-6.4-2.7c-1.4-0.3-2.6-1-3.4-2c-0.4-0.5-0.8-1.1-0.9-1.7l0-0.1
			C875.8,440.5,875.9,439.7,876.3,439z M902.7,458c3.1,0.6,6.8,3.2,8.3,4.3l0.1,0.1c28.7,20.8,28.6,27.8,28.3,55.9
			c0,3.2-0.1,6.6-0.1,11.1c0,7.6-2.6,16.9-6.6,25.7c-4.1,9-9.7,17.4-15.4,22.5l-1.1,1c-18.1,16.3-18.3,16.5-45.2,16.5
			c-6.8,0-20.5-2-32-5.4c-8.6-2.6-16-6-18.9-10.1c-4.5-6.4-8.3-11.1-11.4-15c-9.5-11.6-13.5-16.5-13.5-41.1c0-9,1.8-17.2,5.2-24.7
			c3.5-7.5,8.7-14.2,15.6-20.2c4.4-3.8,6.9-5.6,8.9-7.1c3.1-2.3,5-3.6,11.8-11.5c-0.6-4.3,1-7.8,2.9-12c0.6-1.3,1.3-2.8,1.9-4.4
			c2.9-7.3,8.5-9.1,14.6-11c1.1-0.3,2.1-0.7,3.2-1c1.9-1.2,6.7-1.2,11.2-0.9c3.9,0.3,7.8,1,9.6,1.6l0.2,0l0.2,0v0
			c2.8,0.4,21.7,3,22.2,13.4C903.1,450.4,903.2,454.4,902.7,458z M827.3,510.6c3.7-5.7,8.7-10.9,14.3-15.1c0.6-0.5,1.1-1.1,1.6-1.6
			l0,0c2.7-2.7,5.2-5.3,10-5.3c3.6,0,6.4,0,9.1-0.1c19.5-0.3,32.8-0.5,48.3,14.8c5.7,5.7,7.8,15.9,7.6,26.5
			c-0.2,12.8-3.8,26.3-8.4,32.1c-4.2,5.3-5.1,6.1-7,7.8c-1,0.9-2.2,2-4.3,4c-0.4,0.4-0.9,0.8-1.4,1.1c-5.4,3.6-18.4,4.6-30.8,3.8
			c-12.3-0.8-24.2-3.4-27.9-6.8l-0.1-0.1c-0.3-0.3-0.5-0.6-0.7-0.9l0,0l0,0c-1.8-2.7-3.6-5.2-5.2-7.6c-7.8-11.1-12.8-18.1-11.3-35.7
			l0-0.1C821.6,521.7,823.9,515.9,827.3,510.6z M843.9,498.4c-5.2,3.9-10,8.8-13.5,14.2c-3.1,4.8-5.2,10-5.6,15.3l0,0.1
			c-1.4,16.2,3.3,22.8,10.6,33.3c1.6,2.3,3.3,4.7,5.3,7.7l0,0c0.1,0.1,0.1,0.2,0.2,0.3l0.1,0.1c3,2.9,14,5,25.5,5.8
			c11.7,0.7,23.8,0,28.5-3.2c0.3-0.2,0.6-0.4,0.8-0.7c2.2-2.2,3.5-3.3,4.4-4.2c1.8-1.6,2.6-2.3,6.6-7.4c4.2-5.2,7.4-17.7,7.6-29.8
			c0.2-9.7-1.7-18.9-6.6-23.8c-14.4-14.3-27-14.1-45.6-13.8c-3.1,0-6.3,0.1-9.2,0.1c-3.2,0-5.2,2-7.3,4.2l0,0l0,0
			c-0.6,0.6-1.2,1.2-1.8,1.8L843.9,498.4z M848.1,473.7l-0.2,0.1c-3.4,2.1-4.9,3-8.4,5.6c-0.2,0.1-0.5,0.4-1,0.6
			c-1.3,0.8-3.8,2.2-3.8,2.2c0.2,1-0.5,2-1.5,2.2c-1,0.2-2-0.5-2.2-1.5c-0.5-2.5,3.5-4.8,5.5-6.1c0.3-0.2,0.6-0.4,0.7-0.4
			c2.8-2.1,4.3-3.1,6.5-4.4c-0.9-0.5-1.6-1-2.2-1.5c-0.6,0.7-1.3,1.5-2.2,2.2c-3.1,2.8-7.5,5.9-9.1,6.8c-0.2,0.1-0.5,0.4-0.9,0.7
			l0,0c-0.7,0.6-1.6,1.3-2.5,1.8c-0.9,0.5-2,0.2-2.5-0.7c-0.5-0.9-0.2-2,0.7-2.5c0.6-0.3,1.4-1,2-1.5l0,0l0,0c0.5-0.4,1-0.8,1.3-1
			c1.4-0.9,5.6-3.7,8.5-6.4c1.2-1.1,2.2-2.1,2.5-2.5c-0.6-1.1-1.1-2.1-1.5-3.1c-5.8,6.6-7.8,8-10.9,10.2c-1.9,1.4-4.3,3.1-8.6,6.9
			c-6.5,5.7-11.4,12-14.7,19c-3.3,7-4.9,14.6-4.9,23.2c0,23.3,3.7,27.9,12.6,38.7c3.2,3.9,7,8.6,11.6,15.2c2.3,3.3,9,6.3,16.9,8.6
			c11.2,3.3,24.4,5.3,30.9,5.3c25.4,0,25.6-0.2,42.7-15.5l1.1-1c5.3-4.8,10.6-12.7,14.5-21.3c3.8-8.3,6.3-17.1,6.3-24.2
			c0-3.7,0.1-7.6,0.1-11.2c0.3-26.5,0.4-33.2-26.8-52.9l-0.1-0.1c-1.4-1-5.2-3.7-6.7-3.8c-0.2,0.7-0.4,1.4-0.6,2.1
			c1.6,0.8,3.7,2,5.5,3.2c2.2,1.5,4.1,3.2,4.7,4.5c0.1,0.3,1,1.1,2.1,2.1c1.8,1.6,3.8,3.2,3.9,3.3c1,0.2,1.7,1.1,1.5,2.1
			c-0.2,1-1.1,1.7-2.1,1.5c-0.4-0.1-3.5-2.2-5.7-4.1c-1.4-1.3-2.7-2.6-3.1-3.4c-0.2-0.6-1.7-1.7-3.4-2.9c-1.7-1.2-3.7-2.3-5-2.9
			c-0.3,0.4-0.5,0.8-0.8,1.2c0.4,0.2,0.8,0.5,1.2,0.7c2.1,1.5,4.5,3.7,5.3,4.8c0,0.1,2.9,3.1,3.8,4.1l0.2,0.2
			c0.7,0.7,0.6,1.9-0.1,2.6c-0.7,0.7-1.9,0.6-2.6-0.1l-0.2-0.2c-0.8-0.8-3.1-3.3-3.8-4.2c-0.1-0.1-0.2-0.2-0.2-0.3
			c-0.6-0.8-2.5-2.6-4.4-3.9c-0.7-0.5-1.3-1-1.5-1.1c-2.2,2-5,3.6-8.8,5c-4.4,1.6-16.7,1.6-27.4,0.4
			C856,475.5,851.6,474.7,848.1,473.7z M861,435.1c-1.2,0.4-2.4,0.8-3.5,1.1c-5.2,1.6-10.1,3.1-12.3,8.8c-0.6,1.6-1.3,3.2-2,4.6
			c-2.5,5.4-4.3,9.4-0.1,16.5l0,0l0,0c0.3,0.5,0.6,1,0.9,1.5c0.5,0.8,1.9,1.5,3.9,2.2c0.3,0,0.7,0.1,0.9,0.3
			c3.2,0.9,7.5,1.7,12.1,2.2c10.3,1.2,21.8,1.2,25.8-0.2c5.8-2.1,9-4.8,10.7-8.4l0,0l0,0l0-0.1l0,0c0.1-0.3,0.2-0.6,0.4-0.8
			c0.4-0.9,0.7-2,0.9-3l0,0l0,0l0,0l0,0c0.7-3.7,0.7-8.2,0.4-13.4c-0.3-7.4-16.6-9.6-19-10h0l-0.3,0c-0.3,0-0.5-0.1-0.8-0.3v0l0,0
			l-0.2-0.1c-0.4-0.2-4.3-0.8-8.5-1.1c-4.1-0.3-8.1-0.5-8.6,0h0l0,0C861.5,434.8,861.3,435,861,435.1z"/>
		<path fill-rule="evenodd" clip-rule="evenodd" fill="#FF9933" d="M876,441.3c-0.2-0.8-0.1-1.6,0.3-2.4c2.3-3.9,12.6-0.1,14.1,0.6
			c7.8,3.7,10.2,17.4,5.6,19.5c-8.2,3.8-3.9-6.7-9.3-11.3C882.8,444.5,877.1,446,876,441.3 M844,467.7c3.2,4.8,35.7,7,42.7,4.5
			c13.2-4.7,13.1-13.7,12.5-26c-0.4-8.3-19-9.5-20.1-10.3l-17.3-1.3l-0.8,0.5c-13.5,4.7-12.5,2.9-17.8,14.5
			C840.1,456.3,839,460.1,844,467.7z"/>
		<path fill-rule="evenodd" clip-rule="evenodd" fill="#B3B3B3" d="M867.7,578.7c-13.7-0.7-27.2-3.6-30-7.9l-5.2-7.6
			c-4.2-5.9-7.4-10.5-9.4-16c1.8,6.3,5.2,11.2,9.6,17.4c1.6,2.3,3.3,4.7,5.3,7.7l0,0c0.1,0.1,0.1,0.2,0.2,0.3l0.1,0.1
			c3,2.9,14,5,25.5,5.8C865.1,578.6,866.4,578.7,867.7,578.7 M862.3,488.5c19.5-0.3,32.8-0.5,48.3,14.8c12.6,12.5,7.7,47.9-0.8,58.5
			l-1.3,1.3c-0.5,0.8-1,1.6-1.5,2.3c-4.2,5.3-5.1,6.1-7,7.8c-1,0.9-2.2,2-4.3,4c-0.4,0.4-0.9,0.8-1.4,1.1
			c-5.4,3.6-18.4,4.6-30.8,3.8c-12.3-0.8-24.2-3.3-27.9-6.8l-0.1-0.1c-0.3-0.3-0.5-0.6-0.7-0.9l0,0l0,0c-1.8-2.7-3.6-5.2-5.2-7.6
			c-7.8-11.1-12.8-18.1-11.3-35.7l0-0.1c0.5-5.9,2.8-11.6,6.2-16.9c1.2-1.9,2.6-3.8,4.1-5.6c5.5-7.9,9.1-9.2,14.6-14.7
			C849.8,487.3,851.7,488.7,862.3,488.5z M934.2,493.3c-2.6-8.9-9.2-15.8-25.4-28c-1.4-1-5.2-3.7-6.7-3.8l-0.2,0.7
			c2.6,1,5.1,2.8,6.3,3.7l0.1,0.1C924,477.2,931.1,484.5,934.2,493.3z M839.2,467.7l0.3-0.3c-0.6-1.1-1.1-2.1-1.5-3
			C838.3,465.4,838.6,466.5,839.2,467.7z M843,472.6l0.9-0.6c-0.9-0.5-1.6-1-2.2-1.5L841,471l0.2,0.3
			C841.5,471.7,842.1,472.1,843,472.6z M831.2,482.2c0.3-1.3,1.8-3.1,5.5-5.3l3.1-2.1c-0.3-0.2-0.6-0.5-0.9-0.7
			c-0.6,0.7-1.3,1.5-2.2,2.2c-3.1,2.8-7.5,5.9-9.1,6.8c-0.2,0.1-0.5,0.4-0.9,0.7l0,0c-0.7,0.6-1.6,1.3-2.5,1.8
			c-0.9,0.5-2,0.2-2.5-0.7c-0.5-0.9-0.2-2,0.7-2.5c0.6-0.3,1.4-0.9,2-1.4c-0.3-0.7-0.1-1.6,0.8-2.2l11.1-8.8c-0.4-0.7-0.7-1.4-1-2.1
			c-5.8,6.6-7.8,8-10.9,10.2c-1.9,1.4-4.3,3.1-8.6,6.9c-2.8,2.5-5.4,5.1-7.6,7.8c-1.5,2.2-3,4.7-4.3,7.6c-3.3,7-4.9,14.6-4.9,23.2
			c0,31.7,7.9,30.4,24.3,53.9c6,8.7,39.3,13.9,47.8,13.9c26.2,0,25.8-0.3,43.8-16.6c1.2-1.1,2.5-2.4,3.7-3.9c3-4.1,5.7-8.9,8-13.9
			c3.8-8.3,6.3-17.1,6.3-24.2c0-3.7,0.1-7.6,0.1-11.2c0.3-21.4,0.4-29.9-13.9-42.7c-1.4,4-10.3-5.4-10.8-6.5l-8.3-5.8l-0.4,0.7
			c1.4,0.7,3.2,1.7,4.7,2.8c2.2,1.5,4.1,3.2,4.7,4.5c0.1,0.3,1,1.1,2.1,2.1c1.8,1.6,3.8,3.2,3.9,3.3c1,0.2,1.7,1.1,1.5,2.1
			c-0.2,1-1.1,1.7-2.1,1.5c-0.4-0.1-2.6-1.6-4.7-3.3c-0.7,0.7-1.8,0.9-2.9-0.3l-9.8-9.3c-0.2,0.3-0.4,0.5-0.5,0.8
			c0.4,0.2,0.8,0.5,1.2,0.7c2.1,1.5,4.5,3.7,5.3,4.8c0,0.1,2.9,3.1,3.8,4.1l0.2,0.2c0.7,0.7,0.6,1.9-0.1,2.6
			c-0.7,0.7-1.9,0.6-2.6-0.1l-0.2-0.2c-0.8-0.8-3.1-3.3-3.8-4.2c-0.1-0.1-0.2-0.2-0.2-0.3c-0.6-0.8-2.5-2.6-4.4-3.9
			c-0.7-0.5-1.3-1-1.5-1.1c-2.2,2-5,3.6-8.8,5c-4.4,1.6-16.7,1.6-27.4,0.4c-4.6-0.5-8.9-1.3-12.4-2.4l-0.2,0.1
			c-3.4,2.1-4.9,3-8.4,5.6c-0.2,0.1-0.5,0.4-1,0.6c-1.3,0.8-3.8,2.2-3.8,2.2c0.2,1-0.5,2-1.5,2.2c-1,0.2-2-0.5-2.2-1.5
			C828.1,484.9,829.5,483.4,831.2,482.2z M866.5,476.6c-1.9-0.2-3.9-0.4-5.9-0.6c-4.6-0.5-8.9-1.3-12.4-2.4l-0.7,0.5
			c3,0.8,6.7,1.4,10.7,1.8C860.9,476.3,863.7,476.5,866.5,476.6z"/>
	</g>
	<g>
		<path d="M1203.1,577.1L1203.1,577.1L1203.1,577.1L1203.1,577.1L1203.1,577.1z M1228.6,591.4c-2.2-3.9-5.2-8.2-5.5-8.6l0,0
			c-1.1-1.4-0.7-2.6,0.5-3.6l0,0l0,0c0.7-0.5,1.7-0.9,2.5-1.1c2.6-3.4,8.3-4.7,13.1-5.9c1.4-0.3,2.7-0.7,3.6-0.9
			c-1.9-2.1-3.6-5.4-5.1-8.3l0,0l0,0c-0.4-0.9-0.9-1.7-1.4-2.7c-0.5-0.9,1-2.6,0.1-2.1c-1.8,1-3.9,2.1-6,3.1l-0.1,0.1
			c-1.4,0.7-2.9,1.4-4.3,2.2l0,0l0,0h0c-3.4,1.8-6.7,3.7-9.5,6c-3.9,3.3-10.8,6.5-13.2,7.6l-0.2,0.1c-0.1,0-0.1,0,0-0.1l0,0l0,0l0,0
			l-0.1,0.1c-1.6,1.5-5.9,3-10.3,4.5l-1.7,0.6l-0.3,0.1c-3.4,1.2-6.6,2.4-8,3.5l1.4,1.6c2.1,2.5,2.9,3.5,3.5,4.3
			c0.4,0.6,0.6,1.1,0.9,1.9c0.4,1,1,2.5,2.8,5.9c0.6,1.1-0.6-1.6-0.4-1.7c3.4-1.8,9.6-5.8,12.9-7.9l0,0c0.8-0.5,1.4-0.9,1.9-1.2
			c0.2-0.2,0.5-0.3,0.7-0.4l0,0v0l0,0c1.5-0.4,3.1,1.6,4.6,4.3c1.8,3.3,4,8.2,4.4,9c1.4,3.7,3.1,7,4.7,10.1c1.6,3.1,3.2,6.1,4.3,9.3
			c1.2,3.4,4.6,6.7,8.4,9l0,0c2.2,1.3,4.5,2.3,6.6,2.9c1.9,0.5,3.7,0.6,4.9,0.1c0.5-0.2,0.9-0.5,1.2-0.9l0.1-0.1
			c4.8-7.7-2.3-16.8-8-24.3c-3.4-4.4-6.4-8.2-6.8-11.6C1230.6,595.3,1229.7,593.4,1228.6,591.4z M1200.2,574.2
			c-0.7-1.2-1.4-2.8-2.1-4.3c-0.9-2-1.9-4-2-4.1c-5.6-4.7-16-23.8-24.9-40.4c-6.5-12-12.3-22.8-14.8-25.4c-4.8-5-8.2-13.4-10.9-20.2
			c-1.3-3.2-2.4-6-3.4-7.8l-0.1-0.1c-10.8-18.4,1.1-38.2,8.9-51.3l1.8-3.1c-6.7,8.3-14.6,19.8-19.3,30.9c-4,9.7-5.5,19-1.3,25.3
			c1.3,2,3.4,5.7,5.8,10.1c5.8,10.4,13.8,24.9,18.4,28.3c2.8,2.1,8.3,13.2,14.5,25.7c8.1,16.3,17.5,35,21.6,36.9
			c0.9,0.4,1.4,1.4,1.1,2.3C1196.6,576,1199.2,575,1200.2,574.2L1200.2,574.2z M1154.9,421.7l-0.6,1c-7.3,12.3-18.5,30.8-8.9,47.2
			l0.1,0.1c1.1,2,2.3,5,3.7,8.3c2.6,6.5,5.8,14.5,10,18.9c2.9,3,8.8,14,15.5,26.3c8.8,16.3,18.9,35.1,24,39.2
			c0.8,0.7,1.9,3.1,3.1,5.5c0.8,1.6,1.5,3.3,2.1,4.2c3-1.4,7.4-3.8,10.1-6c2.7-2.2,5.7-4.1,8.8-5.8c-0.8-2-2.6-4.6-4.8-7.7
			c-4.2-5.9-9.7-13.6-12.3-24.1c-1.2-4.6-12.6-27.7-23.7-48.4c-9.2-17.2-18.1-32.7-20.6-34.6
			C1155.1,441.2,1154.5,430.5,1154.9,421.7z M1227.4,581.8c1.2,1.8,3.2,4.8,4.8,7.6c1.3,2.4,2.4,4.7,2.6,6.3c0.3,2.3,3,5.7,6,9.7
			c6.5,8.4,14.5,18.8,8.3,28.9l-0.1,0.1c-0.8,1.2-1.9,2.1-3.3,2.6c-2,0.7-4.6,0.7-7.3,0c-2.5-0.6-5.2-1.8-7.7-3.4l0,0l0,0
			c-4.5-2.7-8.5-6.7-10.1-11.1c-1.1-3-2.6-5.9-4.1-8.8c-1.7-3.2-3.4-6.6-4.9-10.6c-0.3-0.8-2.4-5.3-4.1-8.5c-0.6-1.1,0.8-2.4,0-2.3
			c-0.2,0.1-0.5,0.4-1.5,1.1l0,0l0,0c-3.3,2.1-9.7,6.2-13.2,8.1c-2.4,1.3-4.3,1.5-5.1-0.1c-1.8-3.5-2.5-5.2-2.9-6.2
			c-0.2-0.6-0.4-0.9-0.6-1.2c-0.4-0.6-1.2-1.6-3.1-3.9l-1.9-2.3l0,0l0,0c-1.5-1.8-1-3.4,0.8-4.9c1.7-1.4,5.1-2.8,8.8-4.1l0.5-1.5
			c-5.6-4.9-14.3-22.3-22-37.7c-6-12-11.3-22.7-13.3-24.2c-5.3-4-13.5-18.8-19.5-29.6c-2.4-4.3-4.4-7.9-5.7-9.9
			c-5-7.7-3.5-18.3,1-29.1c6.5-15.6,19.2-31.9,26.6-39.6l0,0c0.1-0.1,0.1-0.1,0.2-0.2l0,0l0,0c1-0.9,1.9-0.9,2.8,0l0,0l0,0
			c0.4,0.3,0.5,0.9,0.6,1.5c0.2,0.9,0.2,1.9-0.1,3l-0.2,1.6c-0.9,7.9-2.7,24.4,4,29.4c3,2.2,12.3,18.3,21.7,35.9
			c11.2,21,22.8,44.5,24,49.4c2.4,9.7,7.6,17,11.7,22.7c2.2,3.1,4.1,5.7,5.1,8.1l2.2-1.1l0.1,0c2-1,3.9-2,5.9-3.1
			c2.1-1.1,3.7,0.7,5.4,3.8c0.4,0.7,0.9,1.7,1.4,2.8l0,0c1.9,3.7,4.1,8,5.5,8.3c1.1,0.2,1.8,1.3,1.6,2.4c0,0.2-0.1,0.3-0.1,0.4
			c-0.9,2.1-4.2,2.9-8.2,3.8c-4.3,1.1-9.6,2.3-11,4.7c-0.3,0.5-0.7,0.8-1.2,0.9l0,0l-0.1,0l-0.1,0L1227.4,581.8z"/>
		<path fill-rule="evenodd" clip-rule="evenodd" fill="#996633" d="M1190.8,598.9l0.5,0.7c0.3,0.7,0-0.1-0.2-0.8L1190.8,598.9z
			 M1246.9,623.9c-2.1-10.1-15.2-20.6-16.2-27.6c-0.1-1.1-1-2.9-2.1-4.9c-4.1-7.4-7.5-9.6-5.6-11.8l-0.2-0.3l0,0
			c-1.1-1.4-0.7-2.6,0.5-3.6l0,0l0,0c0.7-0.5,1.7-0.9,2.5-1.1c2.6-3.3,8.3-4.7,13.1-5.9l1.8-0.4c-1.1-1.7-2-3.6-2.9-5.4l-1.4-2.7
			c-0.4-0.7,0.4-1.9,0.4-2.2l0,0c0,0-0.1,0-0.2,0.1l-19.9,11.4l-13.4,7.6l0,0l-18.4,7.9c1.5,1.8,2.2,2.6,2.7,3.4
			c0.4,0.6,0.6,1.1,0.9,1.9c0.4,1,1,2.5,2.8,5.9c0.6,1.1-0.6-1.6-0.4-1.7c3.4-1.8,9.6-5.8,12.9-7.9l0,0c0.8-0.5,1.4-0.9,1.9-1.2
			c0.2-0.2,0.5-0.3,0.7-0.4l0,0v0l0,0c1.5-0.4,3.1,1.6,4.6,4.3c1.8,3.3,4,8.2,4.4,9c1.4,3.7,3.1,7,4.7,10.1c1.6,3.1,3.2,6.1,4.3,9.3
			c1.2,3.4,4.6,6.7,8.4,9l0,0c2.2,1.3,4.5,2.3,6.6,2.9c1.9,0.5,3.7,0.6,4.9,0.1c0.5-0.2,0.9-0.5,1.2-0.9l0.1-0.1
			C1246.3,627.2,1246.8,625.6,1246.9,623.9z"/>
		<path fill-rule="evenodd" clip-rule="evenodd" fill="#B3B3B3" d="M1203.8,572.4l18.8-11.7c-2.3-6.1-13.1-15.7-17.1-31.8
			c-1.6-6.5-38-78.4-44.3-83c-6.2-4.6-6.8-15.3-6.4-24.1c-7.9,13.2-19,31-9.4,48.3c4,7.1,7.2,20.5,13.7,27.2
			c6.6,6.8,30.6,58.1,39.4,65.5L1203.8,572.4z"/>
	</g>
	<g>
		<path d="M250.2,790.9c2.8-1.2,7.9-3.4,13.1-5.9c7.3-3.4,14.5-7.1,14.8-8.2v0c-0.2-1.1-6.5-6-14-11.9l0,0
			c-7.6-6-16.3-12.8-21.7-18.7c0.7,1.4,1.3,3,1.7,4.7c1.7,8,3.7,17.3,3.9,20.2c0.3,3.1,0.7,5.6,1,7.9
			C249.6,782.6,250.1,785.8,250.2,790.9 M241.3,867.1c0.3-2.2,0.5-5.9,0.7-9.5c0.3-4.3,0.5-8.5,0.9-10.5c3.4-17.1,3.3-29.3,3.2-45.4
			l0-6.7l-0.8-0.4c-6.7-3.4-30.1-15.1-40.4-18c0.9,3.8,2.6,9.8,4.5,16.5c4.4,15.9,10,35.9,10.1,41.2c0,1.3,0,2.7,0,4.3
			c-0.1,10.3-0.4,26.8,9.7,27.3C234.7,866.4,238.9,866.8,241.3,867.1z M250.2,795.1c0,3.6,0,5,0,6.7c0.1,16.3,0.1,28.7-3.3,46.2
			c-0.3,1.8-0.6,5.8-0.9,9.9c-0.2,2.8-0.4,5.7-0.6,8.1c1-0.5,2-1,2.7-1.4c0.8-0.4,1.6-0.7,2.4-1.1c2.2-0.9,4.2-1.8,4.9-2.9
			c1-1.7,1.4-4.2,1.9-7.7c0.6-4,1.4-9.2,3.5-16c0.6-2.1,2-5.8,3.7-10.5c5.1-13.9,13.1-36,13.9-45.1c-3.3,2.4-8.4,5.1-13.5,7.5
			C259.2,791.4,253.2,793.9,250.2,795.1z M285.6,822c0.9-2.5,1.6-4.1,2.4-5.9c0.6-1.3,1.2-2.7,1.9-4.4c0.6-1.4,2.8-5.7,4.9-9.8
			c-3.4,2.2-7.3,4.5-10.9,6.5c-4.4,2.6-8.3,4.7-9.2,5.5c0.5,0.7,3.3,2.7,6,4.8C282.6,819.9,284.4,821.1,285.6,822z M301.8,797
			c-0.6,1.5-1.5,3.2-2.5,5.1l-0.1,0.1c-2.3,4.4-4.9,9.5-5.5,10.9c-0.8,1.9-1.4,3.3-2,4.6c-0.6,1.3-1.1,2.5-1.7,4.1
			c5.6-2,15.9-5.5,21.8-6.6c-1.6-2.5-3.8-6-4.1-6.2l0,0l0,0c-1.4-0.9-2.6-4-3.9-7.1C303.2,800,302.4,798.2,301.8,797z M274.9,865
			c0.3-1.1,0.6-2.4,0.9-3.6c0.6-2.3,1.2-4.6,1.3-5.6c1.2-10.3,3.5-17.4,6.4-26.8l1-3.1c-1.5-1-3.8-2.5-6-4.1c-1.8-1.3-3.6-2.8-5-4.2
			c-0.8,5.7-0.5,17.6-0.2,25.2c0.1,2.8,0.2,5,0.1,6.3c-0.1,4.1-0.6,7.2-1,9.5c-0.3,1.9-0.6,3.3-0.4,4.2c0.1,0.3,0.8,0.8,1.6,1.3
			c0.4,0.3,0.8,0.5,1.2,0.8L274.9,865z M191,821.2c-0.8-2.2-1.6-3.7-2.4-5.4l0,0l0,0c-0.7-1.4-1.5-3-2.3-4.9
			c-0.7-1.6-3.8-7-6.4-11.6c-1.2-2.1-2.3-4.1-3.1-5.7c-0.8,1.5-1.8,4.2-2.8,6.8c-1.4,3.8-2.8,7.4-4.2,8.6c-0.5,0.4-3.3,5.2-5.1,8.5
			C171.9,817.7,184.8,820,191,821.2z M183.5,797.3L183.5,797.3c2.7,4.7,5.9,10.3,6.6,12c0.9,2.1,1.6,3.5,2.2,4.7l0,0
			c1,2,1.8,3.7,2.8,6.5c1.5-1.3,3.7-3.2,6.1-5.4c3.5-3.1,6.9-6.4,7.2-7c-0.6-0.5-5.2-2.4-10.7-4.6
			C193,801.6,187.7,799.5,183.5,797.3z M196.4,824.5l1.2,3.7h0c3.4,10.2,6,18,7.4,29.7c0.1,1.2,0.8,3.7,1.5,6.3c0.4,1.4,0.7,2.7,1,4
			l0.5-0.5l0.1-0.1c0.5-0.4,0.8-0.7,1.2-1c1.1-0.9,2-1.7,2.2-2.3c0.3-1.1,0-2.7-0.4-4.9c-0.5-2.6-1-6.1-1.1-10.8
			c0-1.5,0.1-4.1,0.2-7.3c0.3-8.9,0.7-22.9-0.3-29.3c-1.6,1.9-3.8,4.1-6,6.1C201.1,820.6,198.2,823,196.4,824.5z M302.7,841.8
			c0.7,0.2,1.4,0.2,1.9,0.3l0.1,0c0.6,0.1,0.9,0.1,1.3,0.3l0,0c7.1,2.9,11,6.5,13,11.2c2,4.5,2,9.9,1.6,16.8
			c-1.2,18.2-11,19.4-20.1,20.5c-4.6,0.6-9,1.1-11.1,4.5c-6.1,9.7-22.9,6.2-36.5,3.4c-8.5-1.8-15.6-3.3-16.2-1.5
			c-0.1,0.4-0.3,0.7-0.4,1.1l-0.1,0.1c-1.9,3.6-6.4,4.8-11.2,4.9c-4.3,0.1-9-0.8-11.6-1.6c-0.9-0.3-1.6-0.5-2.1-0.8
			c-11.2-5.8-13.3-5-16.5-3.7c-2.2,0.8-4.8,1.9-9.7,1.9c-12.8,0-14.1-1.8-16.5-5.1c-0.7-1-1.6-2.3-3.3-3.6
			c-8.1-6.8-6.1-11.9-2.7-15.9c0.8-0.9,1.5-1.7,2.3-2.5c1.4-1.4,2.5-2.5,2.2-2.8c-0.7-0.7-1.2-1.4-1.6-2.2l-0.1-0.1
			c-1.2-2.5-0.9-5.3,0.4-8.1c1.1-2.4,3-4.9,5.1-7c1.9-1.9,3.9-3.5,5.9-4.7c-2.9-4.7-6.7-10.5-9.9-15.5c-2.6-4-4.9-7.6-6.3-9.9
			c-0.1,0-0.2-0.1-0.3-0.1c-0.7-0.4-1-1.1-0.9-1.9c-0.5-1-0.1-2.1,0.9-2.7c0.1-0.1,0.2-0.1,0.3-0.1l0.1-0.2l0.1-0.1
			c1.9-3.5,5.7-9.8,6.6-10.6c0.6-0.5,1.8-3.6,3-6.9c1.5-4,3.1-8.2,4.7-9.6c1.4-1.2,2.8-1.3,4.2,0.2l0,0l0,0l0,0l0,0l0,0
			c2.6,3,12.1,6.9,20.1,10.1c3.4,1.4,6.5,2.6,8.9,3.8l-2.6-9.2c-2.2-8-4.2-15-5-18.6c-0.1-0.1-0.3-0.2-0.4-0.3c-1-1-0.6-2.3,0.8-3.7
			c0.5-0.5,1.3-1.2,2.2-2.1c4.2-4,11.7-10.8,14-12.2c0.1-0.1,0.3-0.2,0.4-0.2c1.5-0.6,4.8-4.8,8.2-9.1c4-5.1,8.3-10.4,11.2-11.6l0,0
			c2.1-0.9,3.7-0.5,4.6,1.7c2.5,5.7,14.8,15.5,25,23.5l0,0l0,0c7.7,6.1,14.3,11.3,15.4,14.3l0,0.1l0,0l0,0
			c1.9,4.5-2.2,18.7-6.8,32.6c1.9-1.2,4.2-2.5,6.7-4c6.8-3.9,15-8.6,17.3-11.6l0,0l0,0l0,0l0,0l0,0l0,0c1.2-1.6,2.6-1.6,4-0.5
			c1.6,1.2,2.9,4.6,4.2,7.8c1,2.5,2,4.9,2.4,5.2l0,0l0.1,0.1c0.2,0.1,0.4,0.3,0.5,0.5c1.3,1.5,3.8,5.4,5.3,7.8l0,0l0,0.1
			c0.1,0,0.2,0.1,0.3,0.1c1,0.5,1.4,1.7,1,2.6c0.1,0.7-0.2,1.3-0.7,1.7c-0.1,0.1-0.2,0.1-0.3,0.2c-1.2,2.2-3.2,5.6-5.5,9.5
			C308.1,832.5,305.1,837.5,302.7,841.8z M297.8,842.2c0-0.1,0.1-0.2,0.2-0.3c2.6-4.7,6.1-10.7,9.2-15.9c1.4-2.4,2.8-4.7,3.8-6.6
			c-6.7,1.6-18.7,5.9-22.4,7.2l-0.1,0l-0.1,0l0,0l-1.1,3.5c-2.9,9.2-5,16.1-6.2,26c-0.1,1.2-0.8,3.6-1.4,6.1c-0.4,1.5-0.7,3-1,4.2
			c1.3,0,3.1,0.1,5.3,0.2c4.9,0.3,7.7-8.9,9.3-14.6c0.3-0.9,0.5-1.7,0.8-2.5C294.5,848.4,295.9,845.6,297.8,842.2z M178.8,850.5
			c-1.6,1-3.5,2.4-5.1,4.1c-1.8,1.8-3.3,3.8-4.2,5.8c-0.8,1.7-1,3.3-0.4,4.7l0,0.1c0.2,0.4,0.5,0.8,0.8,1.1c3.1,3.1,0.7,5.6-2.2,8.5
			c-0.7,0.7-1.4,1.5-2.1,2.2c-2.1,2.5-3.2,5.7,2.2,10.2c2.1,1.7,3.1,3.2,4,4.4c1.6,2.3,2.5,3.4,13.2,3.4c4.2,0,6.4-0.9,8.2-1.6
			c4.2-1.6,7-2.7,19.8,3.9c0.2,0.1,0.7,0.3,1.3,0.5c2.4,0.7,6.5,1.5,10.4,1.4c3.4,0,6.6-0.7,7.6-2.7l0-0.1c0.1-0.1,0.1-0.3,0.2-0.5
			c1.6-5.4,10.4-3.5,20.9-1.3c12.4,2.6,27.6,5.8,32.3-1.6c3.1-5,8.5-5.6,14.1-6.3c7.5-0.9,15.6-1.9,16.6-16.7
			c0.4-6.2,0.4-11.1-1.3-14.9c-1.6-3.7-4.8-6.5-10.8-9l0,0l0,0c-0.2-0.1,0,0-0.3,0l-0.1,0c-0.8-0.1-2-0.3-3.4-0.7
			c-1.4,2.6-2.4,4.5-2.7,5.5c-0.2,0.6-0.5,1.5-0.7,2.4c-2,6.9-5.3,18.1-13.5,17.5c-3.1-0.2-5.6-0.2-6.8-0.2
			c-0.2,0.1-0.4,0.1-0.6,0.1c-0.5,0-0.9-0.1-1.2-0.4l0,0l0,0l0,0l0,0c-0.1-0.1-0.2-0.1-0.2-0.2l0,0c-0.4-0.3-0.7-0.5-1.1-0.8
			l-0.1-0.1c-0.5-0.4-1-0.8-1.3-1c-0.3-0.3-0.7-0.5-1-0.7c-1.5-1-2.8-1.9-3.3-3.7c-0.4-1.7-0.1-3.4,0.3-5.8c0.4-2.2,0.9-5.1,0.9-8.9
			c0-1.2-0.1-3.4-0.1-6.1c-0.1-4.6-0.3-10.6-0.2-16.2l-0.3,0.9c-1.7,4.6-3,8.3-3.7,10.3c-2,6.5-2.8,11.5-3.4,15.4
			c-0.6,4-1,6.8-2.5,9.2c-1.4,2.3-3.9,3.4-6.8,4.6c-0.7,0.3-1.5,0.6-2.3,1c-0.9,0.4-2.1,1.1-3.3,1.7c-1,0.5-1.6,0.8-2.1,1.1
			l-0.3,0.1c-0.5,0.5-1.3,0.6-2,0.4c-0.1,0-0.2-0.1-0.3-0.1c-1.9-0.2-6.5-0.6-12.7-0.9c-14-0.7-13.9-19.9-13.7-31.7c0-1.6,0-3,0-4.2
			c0-1.2-0.4-3.2-0.9-6c0,4.6-0.2,9.2-0.3,12.9c-0.1,3.2-0.2,5.8-0.2,7.1c0.1,4.4,0.6,7.6,1.1,10.2c0.5,2.7,0.8,4.6,0.4,6.5
			c-0.4,1.9-1.9,3.1-3.5,4.5l-1.1,0.9l-0.1,0.1c-0.5,0.4-1.1,1-1.6,1.5l0,0l0,0c-0.4,0.4-0.9,0.9-1.3,1.2c-0.1,0.1-0.2,0.2-0.3,0.2
			l0,0l0,0c-0.4,0.4-0.9,0.6-1.4,0.6c-0.1,0-0.3,0-0.4,0c-1.4,0.2-4.1,0.7-7.9,1.5c-9.4,2.2-13.2-10.1-15.6-17.7
			c-0.3-0.9-0.6-1.8-0.8-2.6C181.2,854.6,180.2,852.8,178.8,850.5z M181.2,846.5c0.1,0.1,0.2,0.2,0.2,0.4c2,3.3,3.4,5.9,3.9,7.2
			c0.2,0.7,0.6,1.7,0.9,2.8c1.9,6.3,5.1,16.3,10.8,15c2.8-0.7,5.3-1.1,6.9-1.4c-0.3-1.4-0.8-3.3-1.3-5.3c-0.7-2.8-1.4-5.5-1.6-6.8
			c-1.4-11.2-3.9-18.9-7.2-28.9h0l0,0l-1.3-3.8l-0.2,0c-4.6-0.9-19.7-3.7-27.1-4c1.3,2.1,3.1,4.8,5,7.7
			C173.9,834.9,178.1,841.5,181.2,846.5z M296.2,755.2c0.8,0.4,1.6,0.9,2.1,1.6l0.1,0.1c0.7,0.9,1,2,1,3.4c0.3-0.2,0.5-0.4,0.8-0.6
			c1.4-0.9,3-1.6,4.6-2l-0.5-0.3c-3.5-2.3-4.8-3.5-5.1-5.3c-0.8,1.1-1.6,2-2.4,2.6l-0.1,0.1L296.2,755.2z M287.5,755.5L287.5,755.5
			c0.2-0.3,0.5-0.6,0.7-0.8l0,0l0,0l0,0l0.4-0.3l0.1,0c1-0.7,1.5-0.7,2.1-0.8l0,0h0l0,0c0.3,0,0.8-0.1,3.4-2l0.1-0.1
			c1.3-1,3.1-4.2,4.3-6.4c0.8-1.4,1.5-2.7,2.3-3.3l0,0l0,0c0.5-0.3,1-0.5,1.6-0.4c1,0.2,1.8,1.1,1.7,2.2c-0.2,1.9-0.4,3.4-0.6,4.6
			l0,0.1c-0.5,3-0.6,3.5,3,5.8c2.8,1.9,4.9,2.7,5.8,3.1v0c0.8,0.3,1.3,0.5,1.7,1.3l0,0c1.5,3.1,0.2,3-2.7,3c-0.7,0-2,0-4,0.1l0,0h0
			c-1.5,0.1-3.4,0.8-4.9,1.7c-1.3,0.8-2.2,1.8-2.4,2.6c-0.1,0.6-0.4,1.1-0.7,1.4c-0.1,0.1-0.1,0.1-0.2,0.2l-0.1,0.1l0,0
			c-1.2,1-2.3,0.7-3.1-0.4h0l0,0c-0.2-0.3-0.4-0.6-0.5-1l0,0l0-0.1c-0.3-1.1-0.4-3.1-0.1-4.8l0-0.1c0.2-0.8,0.1-1.3-0.1-1.6l0-0.1
			c-0.2-0.2-0.6-0.4-1-0.5l-0.1,0c-0.7-0.2-1.5-0.2-2.2-0.2c-0.9,0-1.7,0-2.1,0c-1,0.6-2.4,1.2-3.2,0.7c-0.9-0.5-1.2-1.6-0.8-2.5
			l0,0C286,756,286.7,755.5,287.5,755.5z M190.3,729.8c-2,0.2-3.9,0.7-5.3,2c-0.4-0.8-0.9-1.6-1.6-2.3c1.5-1.1,2.8-2.5,3.7-3.9
			C187.9,727.5,189.1,728.8,190.3,729.8z M194.4,733.9c2.9,0.2,5.6-2.4,0.4-5.9c-7.4-5-1.6-8.8-5.5-9.8c-4.5-1.2-2.1,6.6-12.9,9.9
			l1.2,3.9c2.7-0.8,3.9,1.7,4.4,3.5l0.4,1.4c0.3,1.4,0.6,2.3,2,2.5C189.4,740.2,182.7,733.3,194.4,733.9z M155,768.3
			c3.3-0.3,4.7-2.7,5.8-5.4c0.9,2.8,1.9,4.5,2.9,5.6c-1.8,0.5-3.6,1.6-4.9,4.1C157.8,771.2,156.6,769.6,155,768.3z M163,756.7
			l-3.3-1.6l-2,4.2c-3.1,9.3-6.3,1.2-8.4,6.4l-0.3,1c-1.6,5.5,2.8,0.5,7.7,10.5c0.6,1.3,1,2.1,2.2,2.3c1.4,0.3,2.2-0.3,2.5-1.8
			c1.4-7.4,6.6-4.8,8.9-6.1c2.7-1.5,0.9-4.6-0.6-5C164.4,765.5,166.1,764.3,163,756.7z M205.8,772.8c10.6,2.9,32.4,13.7,40.3,17.7
			c-0.1-4.7-0.6-7.6-1.1-10.9c-0.3-2.2-0.7-4.7-1-8.1c-0.2-2.6-2.2-11.8-3.9-19.7c-1-4.5-1.8-8.6-2-11.3l0-0.1
			c-2.1,1.3-5.7,5.8-9.2,10.2c-3.8,4.8-7.4,9.3-9.8,10.4l-0.1,0c-1.3,0.7-8.9,7.6-13.1,11.6L205.8,772.8z M288.7,754.4L288.7,754.4
			 M288.5,826.6L288.5,826.6"/>
		<path fill-rule="evenodd" clip-rule="evenodd" fill="#996633" d="M206.6,894.2c1.8,0.8,4,1.8,6.5,3.1c0.2,0.1,0.5,0.2,0.9,0.4
			l-0.3-0.1C210.8,896,208.5,894.9,206.6,894.2 M172.8,892.7c0.3,0.3,0.6,0.6,1,0.8C173.5,893.2,173.1,893,172.8,892.7z
			 M165.6,884.8c0.6,0.7,1.3,1.5,2.3,2.3c1,0.8,1.8,1.6,2.4,2.3c-0.6-0.8-1.4-1.6-2.5-2.6C167,886.2,166.2,885.5,165.6,884.8z
			 M169.4,865.5l0.2,0.3c0,0,0-0.1,0-0.1L169.4,865.5z M271.3,867.5c-6.5-4.4-1.7-6.9-2.2-24.6c-0.1-3.6-0.3-8.1-0.3-12.6
			c-0.6,1.8-1.2,3.3-1.5,4.4c-2,6.5-2.8,11.5-3.4,15.4c-0.6,4-1,6.8-2.5,9.2c-0.5,0.8-1.1,1.4-1.8,2c-1.8,4.5-5,4.5-13.1,8.7
			c-5.3,2.8-3.4,1.2-17.5,0.5c-6.1-0.3-9.4-3.7-11.2-8.5c-0.4,1.6-1.5,2.7-2.8,3.8c-0.9,2.3-3.1,4.3-7.6,8.1l-9.7,2.1
			c-9.4,2.2-13.2-10.1-15.6-17.7l-3.5-7.6c-1.7,1-4.2,3.1-6.3,5.4c-0.2,0.3-0.4,0.7-0.5,1c-0.8,1.7-1,3.3-0.4,4.7l0,0.1
			c0.2,0.4,0.5,0.8,0.8,1.1c2.7,2.8,1.2,5-1.2,7.5c-0.6,1.8-2.6,3.5-4.4,5.3c-0.9,2.2-0.5,4.8,3.5,8.1c2.1,1.7,3.1,3.2,4,4.4
			c1.6,2.3,2.5,3.4,13.2,3.4c4.2,0,6.4-0.9,8.2-1.6c4.2-1.6,7-2.7,19.8,3.9c0.2,0.1,0.7,0.3,1.3,0.5c2.4,0.7,6.5,1.5,10.4,1.4
			c2.3,0,4.5-0.3,6-1.1c0.4-0.5,0.8-0.8,1.4-1.1c0.1-0.1,0.2-0.3,0.2-0.4l0-0.1c0.1-0.1,0.1-0.3,0.2-0.5c1.6-5.4,10.4-3.5,20.9-1.3
			c12.4,2.6,27.6,5.8,32.3-1.6c3.1-5,8.5-5.6,14.1-6.3c4.3-0.5,8.7-1.1,11.9-4.1c1.1-2.2,1.9-5.2,2.1-9.2
			c0.7-10.7,0.3-19.8-12.1-23.9l-3.1-0.6c-0.4,0.9-0.7,1.5-0.9,2c-0.2,0.6-0.5,1.5-0.7,2.4c-1.4,4.7-3.3,11.3-7,14.9
			c-2,3.8-4.6,6.3-9,6C271.5,870,278.6,872.4,271.3,867.5z"/>
		<path fill-rule="evenodd" clip-rule="evenodd" fill="#E6E6E6" d="M242.9,847.2c3.7-18.8,3.3-32.8,3.2-50.5
			c-8-4-29.4-14.7-39.1-17.4c0.9,3.8,2.6,9.8,4.5,16.5c4.4,15.9,10,35.9,10.1,41.2c0,1.3,0,2.7,0,4.3c-0.1,7-0.2,17,2.9,22.7
			c3.5,2.8,9,2.1,16.8,3L242.9,847.2z"/>
		<path fill-rule="evenodd" clip-rule="evenodd" fill="#E6E6E6" d="M288.4,826.7l-7.3,29.6l-2.4,10.3c10,0.1,9.5,1.4,15.4-16.9
			c0.4-1.3,1.8-4,3.8-7.5l13.1-22.8L288.4,826.7z"/>
		<path fill-rule="evenodd" clip-rule="evenodd" fill="#B3B3B3" d="M274.9,865l8.5-36l1-3.1l-11-8.3c-1.8,12.3,1.3,27-1,41
			C271.4,863.8,271.5,862.5,274.9,865"/>
		<polygon fill-rule="evenodd" clip-rule="evenodd" fill="#B3B3B3" points="274.8,813.8 285.6,822 294.9,801.8 		"/>
		<path fill-rule="evenodd" clip-rule="evenodd" fill="#E6E6E6" d="M301.8,797l-8.1,16.1l-3.7,8.6c5.6-2,15.9-5.5,21.8-6.6
			c-1.6-2.5-3.8-6-4.1-6.2L301.8,797z"/>
		<path fill-rule="evenodd" clip-rule="evenodd" fill="#B3B3B3" d="M257.4,852.8c3.5-24.1,19.6-54.1,21.1-71.7l-28.3,13.9
			c0,19.4,0.6,32.9-3.3,52.8l-1.4,18C255.7,860.7,255.9,863.5,257.4,852.8"/>
		<path fill-rule="evenodd" clip-rule="evenodd" fill="#B3B3B3" d="M210.2,841.3c0.3-8.9,0.7-22.9-0.3-29.3l-13.5,12.4l1.2,3.7
			c3.4,10.2,6,18,7.4,29.7l2.5,10.3C215.6,860.6,209.4,867.9,210.2,841.3"/>
		<path fill-rule="evenodd" clip-rule="evenodd" fill="#E6E6E6" d="M201,858.4c-1.4-11.2-3.9-18.9-7.2-28.9l-0.5-1.5
			c-5.5-1-19.1-3.5-26.1-3.8c1.3,2.1,3.1,4.8,5,7.7c3.7,5.7,7.9,12.2,11,17.3c0.1,0.1,0.2,0.2,0.2,0.4c2,3.3,3.4,5.9,3.9,7.2
			c0.2,0.7,0.6,1.7,0.9,2.8c1.1,3.4,2.5,8,4.5,11.2c1.2,1.1,2.6,1.5,4.3,1.1c2.8-0.7,5.3-1.1,6.9-1.4L201,858.4z"/>
		<path fill-rule="evenodd" clip-rule="evenodd" fill="#B3B3B3" d="M195.1,820.5l13.3-12.4l-24.9-10.8c2.7,4.7,5.9,10.3,6.6,12
			c0.9,2.1,1.6,3.5,2.2,4.7C193.2,816,194.1,817.7,195.1,820.5"/>
		<path fill-rule="evenodd" clip-rule="evenodd" fill="#E6E6E6" d="M188.6,815.8l-8.7-16.5c-0.5-0.8-1-1.7-1.4-2.5
			c-0.8,1.6-1.6,3.9-2.5,6.2c-1.4,3.8-2.8,7.4-4.2,8.6c-0.4,0.3-2.1,3.3-3.8,6.1c7.3,0.6,17.6,2.5,22.9,3.5
			C190.2,819,189.4,817.5,188.6,815.8"/>
		<path fill-rule="evenodd" clip-rule="evenodd" fill="#E6E6E6" d="M209.4,773.9c11.4,3.9,29.6,13,36.7,16.6l-6-38.7l-1.4-7.7
			c-2.1,2-5,5.6-7.8,9.1c-3.8,4.8-7.4,9.3-9.8,10.4l-0.1,0C219.9,764.3,213.7,769.9,209.4,773.9"/>
		<path fill-rule="evenodd" clip-rule="evenodd" fill="#B3B3B3" d="M242.4,746.2c3.5,7,7.6,36.1,7.8,44.7l27.9-14.1
			c-0.2-1.1-6.5-6-14-11.9C256.5,759,247.8,752.1,242.4,746.2"/>
	</g>
	<g>
		<path d="M515.8,855.7L515.8,855.7 M496.1,847.4c-1.2-1.3-2.1-2.7-2.5-4.1l0-0.2l-0.1-0.3l0-0.1h0c-0.2-1-1-2-1.8-3.1
			c-2.1-2.7-4.5-5.9-3.4-12.4l0,0l0,0h0l0,0l0,0c0.1-0.6,0.4-2.1,0.5-4c0.1-1.1,1.1-2,2.2-1.9c0.5,0,1,0.3,1.3,0.6
			c0.9,0.5,1.9,1.4,3.2,2.5c5.7,4.7,17.3,14.4,22.8,14.7c4,0.2,7.2-0.2,10-0.5c7.4-0.9,12.8-1.6,22.7,7.4c1.9,1.7,4.5,5.3,6.6,9.3
			c1.6,3,2.9,6.3,3.4,9.4c0.6,3.4,0.1,6.6-1.9,8.8c-0.6,0.7-1.3,1.2-2.2,1.7l0,0c-3.9,2.1-9,3.7-13.6,3.2h0
			c-3.8-0.4-7.2-2.2-9.3-6.3l-0.2-0.3c-4.5,1-12.3,2.4-18.4,1.6c-4.9-0.6-9-2.5-10.1-6.8L505,865c-0.1-0.3-0.1-0.5-0.1-0.8
			c-0.4-0.2-0.7-0.4-1.1-0.6l0,0l0,0c-4-2.3-7.2-5.4-8.2-9.5c-0.3-1.3-0.5-2.7-0.3-4.1v0l0,0l0,0c0-0.4,0.1-0.6,0.1-0.8
			C495.3,848.5,495.6,847.8,496.1,847.4z M515.3,851.6c1.1-0.2,2.2,0.5,2.4,1.6c0.2,1.1-0.5,2.2-1.6,2.4l-0.3,0.1l-0.2,0
			c-2.6,0.4-7.7-0.8-12.2-3.1c-1.4-0.7-2.9-1.5-4.2-2.4l-0.1,0.3c-0.1,1,0,1.9,0.2,2.7c0.8,2.9,3.2,5.2,6.3,7l0,0
			c3.3,1.9,7.3,3,10.9,3.4c2.3,0.2,4.4,0.1,6-0.3c1.1-0.3,2.2,0.4,2.5,1.5c0.3,1.1-0.4,2.2-1.5,2.5c-2.1,0.6-4.7,0.7-7.4,0.4
			c-2.2-0.2-4.6-0.7-6.8-1.4c0.9,1.9,3.4,2.8,6.4,3.2c5.4,0.6,12.3-0.5,16.7-1.5c-0.5-3.1,0.1-5.9,1.3-7.9c0.7-1.2,1.6-2.1,2.5-2.6
			c1.2-0.7,2.4-0.9,3.7-0.5l0.1,0c1.7,0.6,3.2,2.2,3.9,5.1c0.3,1.1-0.4,2.2-1.5,2.5c-1.1,0.3-2.2-0.4-2.5-1.5
			c-0.4-1.5-0.8-2.2-1.3-2.3l0,0c-0.1,0-0.3,0-0.5,0.1c-0.4,0.2-0.8,0.6-1.1,1.2c-0.9,1.5-1.3,3.9-0.4,6.5l0.1,0.2
			c0.2,0.4,0.4,0.9,0.6,1.3c1.4,2.6,3.7,3.8,6.2,4.1c3.7,0.4,7.9-1,11.3-2.7l0,0l0,0c0.4-0.2,0.8-0.5,1.1-0.8
			c1.1-1.2,1.3-3.2,0.9-5.4c-0.4-2.6-1.6-5.5-3-8.2c-1.9-3.6-4.2-6.7-5.8-8.2c-8.5-7.8-13.1-7.2-19.4-6.4c-3,0.4-6.5,0.8-10.8,0.6
			c-6.9-0.4-19.2-10.6-25.2-15.7c-0.2-0.2-0.4-0.3-0.5-0.5l-0.1,0.8l0,0.1l0,0h0c-0.8,4.8,1,7.1,2.6,9.2c1.2,1.5,2.2,2.9,2.6,4.9h0
			l0,0.2l0,0c0.6,2.4,4,4.9,7.8,6.7c3.8,1.9,7.8,3,9.7,2.7L515.3,851.6z M570.6,867.5l-0.2,1.5c0.1,5.4-3.1,9.2-7.7,11.9
			c-6.5,3.8-15.6,5.3-20.9,5.7c-1.9,0.2-3.5,0-4.9-0.1l-0.1,0c-1-0.1-1.8-0.2-2-0.1c-0.1,0,0.6,1.3,2.4,5.7l0.1,0.1
			c0.2,0.5,11.6-4,16.3-5.4c0.9-0.3,1.6-0.5,2-0.6l0.1,0c1.9-0.5,3.8-1,5.7-1.5c3.6-1,6.9-1.9,8.2-2.1v0c3.6-0.5,6.8-1.8,9.8-3.1
			c2.8-1.2,5.4-2.3,8.3-2.7c15.6-2.1,31.1-6.5,46.6-10.9c8.7-2.5,17.3-5,26.1-7l-0.2-0.8c-0.2-1.1-0.7-2.4-1.3-3.7
			c-1.3-2.8-2.8-5.6-3.7-6.5c-1.2,0.3-2.5,0.7-4,1.2c-6.5,1.9-15.6,4.5-19.4,4.3h0c-0.1,0-5.3,1.1-10.9,2.3
			c-5.5,1.2-11.2,2.3-12.4,2.6c-7.4,1.4-14.8,3.4-22,5.4C581,864.9,575.7,866.3,570.6,867.5z M568.4,863.8L568.4,863.8l0.1,0
			c5.5-1.2,11.1-2.7,16.8-4.3c7.3-2,14.7-4,22.3-5.4c1.2-0.2,6.8-1.4,12.3-2.6c4.7-1,9.3-1.9,11.1-2.3c0.2-0.1,0.5-0.1,0.8-0.1h0
			c3.2,0.1,11.8-2.4,18.1-4.2c2-0.6,3.8-1.1,5-1.4c0.3-0.1-0.6-0.5-0.8-1.4c-0.6-2.3-2.1-5.3-2.8-6.9l0,0l0,0l-0.4-0.8h0l0,0
			c-2.2-4.6-5.5-7.7-8.5-10.6c-1.9-1.8-3.7-3.5-5.2-5.5c-0.5-0.7-3.4-1.1-7-1.4c-5.8-0.4-12.6-0.1-14.4,0.4
			c-6.9,1.9-14.7,2.5-21.8,0.7v0c-6.2-1.5-11.8-4.8-15.7-10.3c-1.4-1.9-2.3-3.2-3-4.1c-1.7-2.3-2.5-3.4-3-4.6
			c-0.4-1-0.6-1.9-0.9-3.4c-0.3-1.4-0.7-3.6-1.5-7.1c-0.1-0.3-0.4-0.5-0.8-0.6c-2.2,0.5-4.6,0.9-7.1,1.4c-2.3,0.4-4.6,0.9-6.7,1.3
			l-0.2,0.1l-0.1,0c-1.5,0.5-2.6,0.8-3.3,0.9c-1.4,0.3-3.3,0.7-5.5,1.2l-9.1,2.4l-0.3,0.1l-3,0.8c-5.5,1.5-11.2,3.1-15.8,4.2
			l-5.5,1.5c0.2,2.1,0.4,5.1,0.4,5.4l0,0c0.5,1.7,1.3,4.6,2.1,7.7c1.5,5.8,3.3,12.7,4.5,15.4l0,0.1c0.4,0.9,3.9-1.4,7-1.8
			c1.7-0.2,3.2-0.4,3.9-0.5c2.2-0.1,4.2-0.3,5.9-0.4c5.4-0.5,8.5-0.7,15.4,1.8c12.3,4.5,15.4,20.8,17.2,29.8
			C569.4,861.9,567.2,864,568.4,863.8L568.4,863.8L568.4,863.8z M658.2,845.4c1.5,1.8,3.1,4.5,4.3,7.1c0.7,1.6,1.3,3.1,1.6,4.5
			c0.4,1.7,0.3,3.3-0.4,4.3c-0.4,0.6-1,1.1-1.8,1.2l0,0l0,0c-8.8,2.1-17.7,4.6-26.6,7.2c-15.6,4.5-31.2,8.9-47.2,11
			c-2.3,0.3-4.7,1.3-7.3,2.4c-3.2,1.4-6.6,2.9-10.9,3.4h0v0c-1.1,0.1-4.1,1-7.6,1.9c-1.9,0.5-3.9,1.1-5.7,1.6l0,0l-1.9,0.6
			c-5.8,1.7-20.1,6-21.3,3l0-0.1c-2.9-7.4-2.8-9.9-0.1-11c1.1-0.4,2.3-0.3,3.9-0.2l0.1,0c1.2,0.1,2.6,0.2,4.3,0.1
			c4.9-0.4,13.4-1.8,19.2-5.1c3.4-2,5.8-4.7,5.7-8.4c0-0.1,0-0.2,0-0.4h0l0.3-2v0v0c-0.8-1.3-1.2-3.5-1.7-6.3
			c-1.6-8.2-4.4-23.1-14.5-26.8c-6-2.2-8.9-2-13.7-1.5c-1.7,0.1-3.5,0.3-6.1,0.4c-0.5,0-1.9,0.2-3.5,0.4c-4.4,0.6-10.5,1.4-11.3-0.6
			l-0.1-0.1c-1.2-3-3.1-10-4.6-15.9c-0.8-3-1.5-5.8-2.1-7.6c-0.1-0.2-0.1-0.5-0.1-0.7l-0.4-4.8l-2.6,0.7c-1,0.3-2.1-0.3-2.4-1.3
			c-0.4-1-0.9-2.1-1.5-3.1c-1-2-2.1-4-2.5-6.4h0c-0.1-0.4-0.7-1.7-1.5-3.4c-2.2-4.7-5.2-11.3-2.2-13.1c4.2-2.5,14.7-3.5,24.3-4.5
			c5.4-0.6,10.6-1.1,13.9-1.8l1.1-0.2c11.4-2.4,19.2-4.1,29.8-8.8l0.2-0.1v0c0.8-0.3,7.2-1.9,7.8-1.1l0.1,0.2l0,0
			c0.1,0.2,0.2,0.4,0.3,0.7l0.1,0.2c0.5,1.9,1.4,7.5,2,12.8c0.7,6.1,0.7,12-0.9,12.9l-0.1,0.1l0,0l-0.1,0l-0.2,0.1v0l-0.1,0
			l-0.3,0.1c0.1,0.2,0.2,0.5,0.3,0.8c0.9,3.6,1.3,5.8,1.6,7.3c0.2,1.3,0.4,2,0.6,2.5c0.3,0.8,1,1.7,2.6,3.8c0.9,1.2,1.9,2.6,3,4.1
			c3.3,4.6,8.1,7.4,13.4,8.7l0,0v0c6.3,1.6,13.5,1.1,19.7-0.7c2.1-0.6,9.6-1,15.8-0.6c4.6,0.3,8.6,1.2,9.9,3
			c1.3,1.7,2.9,3.3,4.7,4.9c3.3,3.1,6.8,6.4,9.4,11.8h0l0.4,0.7l0,0c0.8,1.7,2.4,4.9,3.1,7.6C658.5,842.8,658.6,844.3,658.2,845.4z
			 M510.2,798c1.5-0.1,3.9-0.6,6.9-1.4l17.4-4.6l0.3-0.1l0.3-0.1c3.8-1,7.4-2,10.5-2.8l5.1-1.3c1.1-0.3,2.3-0.6,3.7-0.9l0,0
			c1.7-0.5,3.8-1.2,6-1.7c2.7-0.7,5.6-1.2,7.9-1c1.7-0.4,3.1-0.7,4.2-1c0.1-0.4-0.8-4.3-1.3-8.8c-0.5-5.1-1.3-10.5-1.8-12.1
			c-0.4-0.2-1.1,0.6-1.7,1.3c-0.2,0.6-0.6,1.1-1.2,1.3l-0.1,0l0,0l-0.1,0v0c-11,4.8-18.9,6.5-30.5,9l-1.1,0.2
			c-3.5,0.7-8.8,1.3-14.3,1.9c-9.1,0.9-19.2,2-22.6,4c-0.1,0.1,2.3,4.6,3.8,7.9c0.9,1.9,1.6,3.4,1.8,4.3h0l0,0
			c0.4,1.8,1.3,3.6,2.2,5.3c0.3,0.6,0.6,1.3,0.9,1.9l2.1-0.6C509,798.3,509.5,798,510.2,798L510.2,798z"/>
		<path fill-rule="evenodd" clip-rule="evenodd" fill="#CC6633" d="M551.8,829.7c12.3,4.5,15.4,20.8,17.2,29.8l-0.6,4.3l39.2-9.7
			l24.2-4.9l20.5-5c-0.7-2.2-1.9-4.7-2.6-6.2l0,0l0,0l-0.4-0.7h0l0,0c-2.2-4.6-5.5-7.7-8.5-10.6c-1.9-1.8-3.7-3.5-5.2-5.5
			c-0.5-0.7-3.4-1.1-7-1.4c-5.8-0.4-12.6-0.1-14.4,0.4c-6.9,1.9-14.7,2.5-21.8,0.7v0c-6.2-1.5-11.8-4.8-15.7-10.3
			c-1.4-1.9-2.3-3.2-3-4.1c-1.7-2.3-2.5-3.4-3-4.6c-0.4-1-0.6-1.9-0.9-3.4c-0.3-1.4-0.7-3.6-1.5-7.1c-0.1-0.3-0.4-0.5-0.8-0.6
			c-2.2,0.5-4.6,0.9-7.1,1.4c-2.3,0.4-4.6,0.9-6.7,1.3l-0.2,0.1l-0.1,0c-1.5,0.5-2.6,0.8-3.3,0.9c-1.4,0.3-3.3,0.7-5.5,1.2l-9.1,2.4
			l-0.3,0.1l-3,0.8c-5.5,1.5-11.2,3.1-15.8,4.2l-3.5,0.9l2.1,10.9c6.2,23.4,1.7,13.7,15.4,13.2C539.1,828,542.5,826.3,551.8,829.7"
			/>
		<path fill-rule="evenodd" clip-rule="evenodd" fill="#996633" d="M608.3,858.1l-37.7,9.4c-0.8,5.6-0.6,9.1-7.9,13.4
			c-12.3,7.2-27.9,5.5-27.9,5.5l2.5,5.8l24.1-7.6c3.6-1,6.9-1.9,8.2-2.1l18.1-5.8c24.4-3.2,48.6-12.3,72.7-18l-5.2-11l-23.5,5.5
			L608.3,858.1z"/>
		<path fill-rule="evenodd" clip-rule="evenodd" fill="#FF9933" d="M569.5,762.5l0-0.3l-0.4,0.3L569.5,762.5z M510.2,798l50.2-12.8
			l10.2-1.7c-0.3-1.6-0.7-3.9-0.9-6.4c-0.5-5.1-1.3-10.5-1.8-12.1c-0.4-0.2-1.1,0.6-1.7,1.3c-0.2,0.6-0.6,1.1-1.2,1.3l-0.1,0l0,0
			l-0.1,0v0c-11,4.8-18.9,6.5-30.5,9l-1.1,0.2c-3.5,0.7-8.8,1.3-14.3,1.9c-7.6,0.8-15.7,1.6-20.3,3l4.8,10.4l3.1,7.2L510.2,798z"/>
		<path fill-rule="evenodd" clip-rule="evenodd" fill="#FFFFFF" d="M548.4,849c-12.3-11.2-16.4-5-30.2-5.8
			c-6.2-0.4-22.5-12.5-25.7-16.1l-0.2,0.9c-1.3,7.8,4.3,9,5.2,14.1c1.1,5,14,10.4,17.8,9.6c2.4-0.5,3.8,3.1,0.5,4.1l-0.1,0
			c-2,0.6-5.8,0.1-12.2-3c-1.4-0.7-2.9-1.5-4.2-2.4c-0.8,4.1,2.6,7.8,6.5,10c12.1,6.8,18.4,0.6,19.4,4.5c1.3,4.9-12.1,2.7-15.7,1.5
			c2.6,5.7,19.1,2.6,23.1,1.7c-1.8-10.4,8.9-16.1,11.6-5.9c0.7,2.6-3.3,3.6-3.9,1c-2.3-8.7-8.5,9.9,3.6,11.2c3.7,0.4,7.9-1,11.3-2.7
			C561.5,868.4,552.6,852.8,548.4,849"/>
	</g>
	<g>
		<path d="M829.4,806.2c-0.1,0.2-0.2,0.3-0.3,0.4C829.1,806.8,829.2,806.4,829.4,806.2 M895.1,846.8c1,0.2,1.7,1.3,1.5,2.4
			 M902.5,876.9c-2.5,0.3-4.8-0.2-6.8-1.3c-2.1-1.1-3.9-2.9-5.2-5c-1.3-2.1-2.3-4.6-2.7-7.2c-1.2-7.2,1.2-11,3.8-13.1l-0.1,0l-0.1,0
			c-1.2-0.2-9.4-2.5-17.1-4.7c-7-2-13.7-4-14.5-4.4c-2.9-1.3-7.3-2.6-11.8-3.9c-6.3-1.8-12.7-3.7-15.7-6l0,0v0l0,0
			c-0.9-0.6-1.2-1.3-1.6-2c-0.2-0.5-0.5-1-4.1-0.7c-2.7,0.2-2.8,0.3-4.5,1.9l-0.1,0.1l-1.1,1l0,0l0,0c-1.4,1.2-2.3,2.3-2.9,3.6
			c-0.7,1.3-1.1,2.8-1.4,4.7c0,0.1,0.1,0.5,0.1,1.1c0.1,0.9,0.2,2,0.2,2.6c0,0.4-0.2,0.8-0.4,1.1c0,0.1-0.1,0.1-0.1,0.2l0,0h0
			c-0.2,0.9,0.2,2.2,1.1,3.7c1,1.7,2.5,3.4,4.4,4.7l0,0l0,0c1.2,0.9,2.6,1.6,4,1.9c2.7,0.7,4.8,1.2,6.9,1.7
			c11.7,2.8,21.7,5.3,33.6,10.4l0.2,0.1c1.6,0.7,3.3,1.1,5,1.5c3,0.7,6.2,1.5,10.3,3.9c2.4,1.5,7.9,4.2,12.8,5.4l0.1,0
			c2.7,0.7,5.2,0.8,6.5,0l0,0L902.5,876.9z M941,762.8l0.9-0.2c-0.6-0.2-1.2-0.4-1.7-0.5c-1.4-0.4-2.7-0.8-3.9-1.4l-0.1,0
			c-3.7-1.9-11.9-4.1-19.5-6.1l-0.1,0c-7.8-2.1-15.1-4-17.1-5.6l0,0l0,0c-0.2-0.2-1.3-0.4-3.6-1.2c-7.9-2.8-24.5-8.8-29.3-11.2
			c-1.4-0.1-2.7-0.1-3.9,0.1c-2.6,0.4-4.6,1.6-6.1,3.3c-1.5,1.8-2.4,4.1-2.7,6.7c-0.2,1.7-0.2,3.5,0.2,5.4c1,6.1,3.4,7.4,5.1,8.4
			c0.9,0.5,1.7,1,2.3,1.8c0.6,0.1,0.8,0.2,1,0.3c0,0,0,0,0.6-0.1c0.5-0.2,1-0.3,1.5-0.2l0.3,0c1.3-0.1,5.6,1.4,11.1,3.2
			c7.9,2.7,18.2,6.2,22.3,6.4c3.1,0.1,7.9,2,13.2,4.2c5.8,2.3,12.3,4.9,17.5,5.6l0.4,0.1c-0.2-1.1-0.5-2.5-0.9-4.3h0l0,0l0-0.1
			l0-0.1l0,0c-0.5-3.1,1-6.4,3.4-9.1c2.3-2.6,5.6-4.6,8.7-5.2v0l0,0l0.1,0L941,762.8z M950.8,775.2c0.1-0.1,0.4-0.8,0.8-1.5l0,0
			c0-0.1,0.1-0.1,0.1-0.2c0.1-0.1,0.2-0.3,0.3-0.4c0-4.1-0.8-5.9-2.3-6.6c-1.7-0.8-4.6-0.4-8.1,0.2l0,0l-0.1,0v0
			c-2.3,0.4-4.7,2-6.5,3.9c-1.7,1.8-2.7,4-2.4,5.7l0,0.1h0c0.5,2.8,1,4.7,1.3,5.9c0.3,1.4,0.5,2.1,0.3,2.8l0,0.1
			c-0.7,2.5-1.7,2-3.5,1l0,0l0,0c-0.4-0.2-1.1-0.6-2.1-0.7c-5.7-0.8-12.4-3.5-18.4-5.9c-5-2-9.5-3.8-11.9-3.9
			c-4.7-0.2-15.3-3.8-23.4-6.6c-5-1.7-9-3.1-9.4-3h0c-1.3,2.9-4.6,10.2-7.4,16.1c-2,4.3-3.7,7.9-4.1,8.7c-0.2,0.4-0.5,0.6-0.8,0.8
			c0.9,0.8,1.8,1.6,2.7,2.3c2.5,2.1,7.7,4.9,12.7,7.7c6.1,3.4,12.2,6.7,14.3,9.2c0.5,0.1,1.1,0.4,1.6,1.4l0,0
			c0.9,1.7,0.6,2.9-0.7,3.7l-0.1,0.1c-2.1,1.1-8.7-1.8-12.4-3.5c-0.9-0.4-1.5-0.7-1.9-0.8l0,0l-0.1,0c-1.9-0.6-3-1-3.9-1.3
			c-2.6-0.8-4.6-1.5-8.4-3.1c-1.3-0.5-5.2,0.2-9.8,1c-6.1,1.1-13.3,2.4-18.2,1.2c-3.2-0.8-4-2.3-3.6-4.3c0.1-0.4,0.3-0.8,0.5-1.2
			c-5.4,1.2-7.8,1.1-15.9-0.1c-3.4-0.5-5.6-1.2-6.7-2.1c-1.6-1.2-1.9-2.6-1.2-4.1c0.4-0.8,1.1-1.6,2.1-2.3l-1.8,0.1
			c-4.4,0.1-8.3,0.2-9.1-0.2c-1-0.4-2.5-0.7-4-1.1c-3.3-0.7-6.9-1.6-8.8-3.4l0,0l0,0c-2.1-2-2.4-4.6,1-8.1c5.2-5.5,10.8-8,15.2-10.1
			c2.3-1,4.2-1.9,5.4-2.9c4.4-3.7,11-2.9,16.5-2.2l2,0.2c11.5,1.2,17.9,8.2,25,15.9c1.6,1.7,3.2,3.5,4.9,5.2l0-0.1
			c0.4-0.7,2-4.3,4-8.5c2.3-5,5-11,6.6-14.4l0,0c0,0,0,0-0.7,0c-0.9,0-1.6-0.6-1.9-1.4l0,0c-0.1-0.2-0.6-0.5-1.2-0.9
			c-2.4-1.4-5.7-3.3-7-11.3c-0.4-2.3-0.4-4.5-0.2-6.5c0.4-3.4,1.6-6.5,3.6-8.9c2.1-2.4,4.9-4.1,8.5-4.7c1.6-0.3,3.5-0.3,5.4-0.1
			c0.3,0,0.5,0.1,0.8,0.2c4,2.2,21.1,8.3,29,11.2c2.7,0.9,4.4,1.6,4.7,1.8l0,0c1.4,1.1,8.2,2.9,15.6,4.9l0.1,0
			c7.8,2.1,16.2,4.3,20.3,6.4l0.1,0c0.8,0.4,2,0.7,3.2,1.1c2.1,0.6,4.6,1.4,7.6,3c0.4,0,0.9,0.1,1.5,0.4c0.6,0.3,1.1,0.9,1.2,1.5
			c2.8,1.4,4.3,4.4,4.3,10.2h0c0,0.5-0.4,1.4-0.8,2.3l0,0l0,0c-0.4,0.8-0.9,1.6-1.2,2.1c-0.5,2-1.6,5.6-2.9,9
			c-1.4,3.8-2.8,7.7-3.5,9.2c-0.1,0.2-0.2,0.4-0.3,0.6c-2.4,3.1-6.7,11-10.8,19.6c-4.9,10-9.6,20.7-11.1,25.4
			c-1.5,4.6-3.3,8.3-5.2,12.1c-1.7,3.4-3.4,6.8-4.8,10.9c-1.7,4.8-2.7,7.6-4.4,10c-1.7,2.4-3.9,4.1-7.7,6.8l0,0l0,0
			c-2.4,1.7-6,1.6-9.8,0.7l-0.1,0c-5.3-1.3-11.3-4.3-13.9-5.9c-3.6-2.1-6.4-2.8-9.1-3.4c-1.9-0.4-3.7-0.9-5.7-1.7l-0.2-0.1
			c-11.6-5-21.5-7.4-32.9-10.2c-2.4-0.6-4.8-1.2-6.9-1.7c-1.9-0.5-3.8-1.4-5.4-2.5l0,0c-2.3-1.6-4.2-3.8-5.5-6
			c-1.4-2.4-2-4.8-1.5-6.8h0c0.1-0.3,0.2-0.7,0.4-1c0-0.4-0.1-1-0.1-1.5c-0.1-0.9-0.2-1.7-0.1-2.2c0.4-2.3,0.9-4.1,1.8-5.8
			c0.9-1.8,2.1-3.3,3.9-4.8l0,0l1.1-1l0.1-0.1c2.7-2.4,2.8-2.5,6.9-2.9c4-0.4,5.9,0.3,6.9,1.2c1-2,2.3-4.8,3.2-7.4
			c0.7-1.8,3.1-6.9,3-7.1c-0.5-1-0.1-2.2,0.9-2.7s2.2-0.1,2.7,0.9c0.7,1.4-1.8,7.5-2.9,10.3c-1.2,3.1-3,6.8-4.2,9.1
			c2.9,1.6,8.1,3,13.2,4.5c4.6,1.3,9.2,2.7,12.4,4.1c0.7,0.3,7.1,2.2,13.9,4.2c7.5,2.2,15.5,4.4,16.7,4.6l0,0l2.8,0.5l0.1,0
			c3.4,0.6,4.6,0.9,4.4,2.9v0c-0.2,1.3-0.9,1.6-2.1,2l-0.1,0c-1.9,0.7-6.9,2.6-5.5,10.9c0.3,2.1,1.1,4.1,2.1,5.7
			c1,1.6,2.2,2.8,3.7,3.6c1.4,0.7,3,1.1,4.7,0.8c1.3-0.2,2.6-0.7,4-1.6c0.4-0.2,1-0.5,1.7-0.8c0.4-0.2,0.5,0.4,0.7,0.2l0.1-0.2l0,0
			l0,0l0,0v0c0.9-1.7,1.7-3.9,2.8-7.1c1.5-4.3,3.2-7.8,5-11.4c1.8-3.6,3.6-7.2,5-11.6c1.6-4.9,6.4-15.8,11.3-25.9
			c4.3-8.7,8.7-16.9,11.3-20.3l0,0c0.3-0.5,1.7-4.5,3.2-8.7c1.5-4.2,3-8.1,3-8.2c-0.1-0.4-0.1-0.7,0-1.1h0l0-0.1h0l0,0h0l0,0l0,0
			l0,0h0l0-0.1l0,0l0,0l0,0C950.6,775.5,950.7,775.4,950.8,775.2L950.8,775.2L950.8,775.2L950.8,775.2z M873.8,809.6
			c-2.2-1.3-4.7-2.7-7.3-4.1c-5.2-2.9-10.5-5.8-13.3-8.1c-4.1-3.4-7.6-7.1-10.8-10.6c-6.6-7.1-12.5-13.5-22.5-14.6
			c-1-0.1-1.5-0.2-2.1-0.2c-4.6-0.6-10.3-1.2-13.4,1.3c-1.6,1.3-3.7,2.3-6.3,3.5c-4.1,1.9-9.3,4.3-14,9.2c-1.3,1.4-1.5,2.1-1.2,2.4
			l0,0c1.1,1.1,4.1,1.8,6.9,2.4c1.7,0.4,3.3,0.7,4.5,1.2c0.3,0.1,3.6,0,7.6-0.1c5.4-0.2,11.7-0.5,13-0.7c1.1-0.2,2.2,0.6,2.3,1.7
			c0.2,1.1-0.5,2-1.6,2.3c-2.2,0.7-6.7,2.2-9.2,3.9l-0.1,0.1l-0.4,0.3c0.8,0.3,2.2,0.7,4.2,1c9.8,1.4,10.7,1.2,20.3-1.3v0l1-0.3
			l0.1,0c2.3-0.6,3.4,0,3.8,1.3l0,0.1l0,0l0,0.1c0.2,1.4-1,2.2-2.5,3.2c-1.1,0.7-2.6,1.7-3.4,2.4l0.1,0c4.1,1,10.8-0.2,16.6-1.3
			c5.2-0.9,9.7-1.8,12.1-0.8c3.7,1.5,5.7,2.2,8.1,3c1.3,0.4,2.7,0.9,4,1.3l0,0l0,0l0,0l0,0c0.4,0.2,1.2,0.5,2.1,0.9L873.8,809.6z"/>
		<path fill-rule="evenodd" clip-rule="evenodd" fill="#B3B3B3" d="M843.1,809.4l-7.1,19.4l39.5,12.8l19.6,5.2c7.3,1.4,4,4.3,2.2,5
			c-11.8,4.2-3.7,27.4,9,19.4l1.7-0.8l3.6-7.2l10-22.9l22.6-46.3l6.2-16.9c-0.1-0.4-0.1-0.7,0-1.1l0.1-0.2l0.4-0.6l0.8-1.5
			c1.6-3.2-1-6.7-1.9-7.1l-8.3,0.2c-4.2,0.8-9.5,5.9-8.9,9.7c0.4,2.4,4.2,13.9-2,9.8c-0.4-0.2-1.1-0.6-2.1-0.7
			c-10.1-1.4-25.1-9.5-30.3-9.7l-32.8-9.6l-12.3,25.6l15.4,10l15.8,10.6l-0.8,3.8l-18.3-5.6c-10.6-3.4-6.5-4.2-18.3-2
			C846.1,808.8,844.7,809.1,843.1,809.4"/>
		<path fill-rule="evenodd" clip-rule="evenodd" fill="#E6E6E6" d="M816.7,840.2c0,1.4,0.2,2.6,0,3.5c0,0.5,0.1,1,0,1.3l0,0.3
			l5.1,7.9c4.8,3.4,27.8,6.5,44.5,14.1c4.1,1.8,8.5,1.4,15.3,5.4c1.9,1.1,12.8,6.8,17.9,5.9c-1.4-0.2-2.7-0.6-3.9-1.3
			c-2.1-1.1-3.9-2.9-5.2-5c-1.3-2.1-2.3-4.6-2.7-7.2c-0.3-1.9-0.4-3.5-0.2-5l0,0c0-3.1,0.9-6.1,2.8-8.3c-2.8-0.7-9.5-2.6-15.9-4.5
			c-7-2-13.7-4-14.5-4.4c-2.9-1.3-7.3-2.6-11.8-3.9c-6.3-1.8-12.7-3.7-15.7-6l0,0v0l0,0c-0.9-0.6-1.2-1.3-1.6-2
			c-0.2-0.5-0.5-1-4.1-0.7c-2.7,0.2-2.8,0.3-4.5,1.9l-0.1,0.1l-1.1,1l0,0l0,0c-1.4,1.2-2.3,2.3-2.9,3.6
			C817.3,837.6,817,838.8,816.7,840.2"/>
		<path fill-rule="evenodd" clip-rule="evenodd" fill="#E6E6E6" d="M863.1,762.5c4.8-1.5,26.1,8.9,35.3,9.4
			c6.3,0.3,19.4,7.8,30.6,9.8c-0.2-0.8-0.3-1.6-0.5-2.6h0l0,0l0-0.1l0-0.1l0,0c-0.1-0.7-0.1-1.5,0-2.2c-0.6-4.9,4.7-11.2,10.4-13.2
			c-0.9-0.3-1.8-0.6-2.6-1l-0.1,0c-3.7-1.9-11.9-4.1-19.5-6.1l-0.1,0c-7.8-2.1-15.1-4-17.1-5.6l0,0l0,0c-0.2-0.2-1.3-0.4-3.6-1.2
			c-7.9-2.8-24.5-8.8-29.3-11.2c-1.4-0.1-2.7-0.1-3.9,0.1c-2.6,0.4-4.6,1.6-6.1,3.3c-1.5,1.8-2.4,4.1-2.7,6.7l-0.1,0.6
			c0,1,0.1,2.1,0.3,3.3c1,6.1,3.4,7.4,5.1,8.4L863.1,762.5z"/>
		<path fill-rule="evenodd" clip-rule="evenodd" fill="#996633" d="M782.9,788.2c0,0.1,0.1,0.2,0.1,0.2l11.4,3.6l20.6-0.8
			c2.3-0.3,3.2,2.8,1.3,3.8c0.1,1-0.6,1.9-1.6,2.1c-1.6,0.5-4.7,1.5-7.2,2.7c0.7,0.2,1.6,0.3,2.7,0.5c9.8,1.4,10.7,1.2,20.3-1.3
			c4.7-1.2,6.1,1,3.8,3.3c0.2,1.4-1,2.1-2.5,3.1l-0.9,0.6c11.8,0.7,22.6-4.1,27.3-2.2l2.1,0.8c-3.3-1.9-6.3-3.7-8.2-5.2
			c-4.1-3.4-7.6-7.1-10.8-10.6c-6.6-7.1-12.5-13.5-22.5-14.6c-1-0.1-1.5-0.2-2.1-0.2c-4.6-0.6-10.3-1.3-13.4,1.3
			c-1.6,1.3-3.7,2.3-6.3,3.5c-4.1,1.9-9.3,4.3-14,9.2L782.9,788.2z"/>
	</g>
	<g>
		<path fill-rule="evenodd" clip-rule="evenodd" fill="#996633" d="M1196.8,851.1l-0.3,0c-0.7,0-0.3,0.1,0.2,0.3L1196.8,851.1z
			 M1112.3,873.4c2.3,1.1,5.9,1.6,11.4,2.4c12.6,1.8,50.3-0.6,68.1-0.6l51.8,0.3c8-0.4,18.4,2,23.2-2.1c1.5-9.2-1.3-47.3-2-50.3
			c-6,0-33.3-0.1-63.3-0.2l0,1.8c-0.1,3.2-0.2,7.8-0.2,10.9c0.6,0.4,1.1,0.8,1.6,1.4c0.3,0.3,0.5,0.7,0.7,1c0.7,0.4,1.3,0.9,1.9,1.5
			l0,0c0.9,1.1,1.5,2.6,1.7,4.2c0.2,1.5,0.1,3.2-0.5,4.7c-1,2.9-3.5,5.3-7.6,5.3c-1.2,0,1.1,0.3,1,0.7c-0.8,3.3-2.1,8.3-6.8,8.5v0
			l0,0l-0.6,0l-0.2,0c-3.3,0-5.9-1-7.7-2.7c-0.5-0.5-0.9-1-1.3-1.6c-2-1.3-3.4-3.4-4-6c-1.2-0.3-2.4-1-2.9-2.7
			c-1.6-0.5-2.9-1.8-2.9-4.9c0-7.7,2.8-9.1,4.7-9.8l1.5-12.4l-12.6,0c-24.2,0-45.3,0-52.7,0.2l0,0.1l0,0c-0.2,1.1-0.4,2.1-0.6,2.7
			l0,0c-0.8,2-1.2,4.4-1.4,6.8c-0.2,2.5-0.2,5.1-0.2,7.4c0,3.4,0.1,6,0.1,8.5c0.1,5.9,0.3,10.8-0.5,17.5
			C1111.6,869.5,1111.6,871.8,1112.3,873.4z"/>
		<path d="M1179.9,816.2c0-4.4,0-9,0-13.5l0-7.9h0c0-4.3-0.3-8.3-0.6-12.3c-0.2-3-0.5-6-0.6-9.2c-8.2,0.1-19.6,0.5-30.3,1.1
			c-10,0.5-19.4,1.3-24.8,2.1c-13,2.1-12.9,10-12.7,17.5v0v0c0,1,0,2,0,2.6c0,1.6,0.5,4.3,1,7.2c0.7,4.3,1.6,9.1,1.1,12.5
			c8.7-0.2,28.9-0.2,51.8-0.2L1179.9,816.2z M1193.9,816.3c0-2.3,0-4.8,0-7.2c0-1.3,0-2.6,0-4.5c0-5.3-0.1-10.2-0.2-15.1
			c-0.1-5.5-0.3-11-0.2-16.4c-4.1,0.1-7.6,0.1-9.7,0.1l-1,0c0.1,2.9,0.3,5.9,0.6,8.9c0.3,4.1,0.7,8.2,0.7,12.6h0l0,7.9
			c0,4.6,0,9.1,0,13.5L1193.9,816.3z M1182.4,836.1L1182.4,836.1L1182.4,836.1 M1183.9,820.3c-0.1,1.5-0.3,3.3-0.5,5.3
			c-0.5,4.2-1,9-0.9,10.6v0l0,0.1c0.1,2-1,2.3-2.4,2.8l-0.1,0c-0.8,0.3-2.2,0.8-2.2,6c0,1.1,1,1.2,1.8,1.3c2,0.2,3.7,0.4,3.7,3
			l0,0.1l0,0.5c0.1,2.1,0.7,3.7,1.8,4.7c1.1,1,2.7,1.6,4.9,1.6l0.1,0l0.5,0c1.6-0.1,2.5-3.3,3-5.4c0.6-2.2,1-3.8,2.9-3.8
			c2,0,3.2-1.1,3.7-2.6c0.3-0.9,0.4-1.9,0.3-2.8c-0.1-0.9-0.4-1.6-0.8-2.2l0,0l0,0c-0.5-0.5-1.2-0.8-2.1-0.5
			c-1.4,0.5-2.1,0.2-2.6-1.2c-0.1-0.3-0.2-0.6-0.2-1c-0.2-2.6,0-10.2,0.1-14.9l0-1.5c-0.1-0.1-0.2-0.1-0.2-0.2L1183.9,820.3z
			 M1185.5,836.8c0.6-0.5,1.3-0.8,2.3-1.2l0,0l0,0c0.6-0.2,1.2-0.2,1.8,0.2l0.1,0l0.1,0c1.3,0.1,3.2,0.2,4.3,2l0,0
			c0.1,0.2,0.2,0.4,0.3,0.6h0c0.3,0.8,0.5,2.4,0.3,3.9c-0.2,1.8-0.8,3.5-2.1,4.4c-0.1,0.1-0.3,0.2-0.4,0.2c0.2,0.3,0.3,0.6,0.3,1v0
			v0c0,0.4,0,0.8,0,1.1c0,2.4-0.5,4.5-3.8,4.5c-3,0-3.6-1.7-3.6-4c0-0.4,0-0.9,0.1-1.3c0-0.6,0.5-1.2,0.4-1.3l0,0
			c-0.4-0.1-0.7-0.3-1-0.5c-1.1-0.8-1.6-2.1-1.7-3.4l0-0.1v0v0c-0.1-1,0.1-2.1,0.3-2.9h0c0.2-0.5,0.4-1,0.6-1.3
			C1184.5,837.8,1184.9,837.3,1185.5,836.8z M1188.4,839.7c-0.1,0.1-0.2,0.1-0.3,0.2c-0.2,0.2-0.5,0.6-0.9,1.2c0,0,0,0,0,0.1l0,0h0
			c-0.1,0.4-0.2,1-0.2,1.6v0c0,0.1,0,0.2,0,0.3c1,0.3,1.6,0.8,1.9,1.4c0.3-0.6,0.8-1,1.5-1.3c0.1-0.1,0.2-0.7,0.3-1.3
			c0.1-0.8,0-1.5,0-1.9c-0.2,0-0.8-0.1-1.2-0.1l0,0C1189.1,839.9,1188.8,839.8,1188.4,839.7z M1241.8,834.7
			c-1.1,0.2-2.2-0.4-2.4-1.5c-0.2-1.1,0.4-2.2,1.5-2.4c0.3-0.1,5.5-0.2,11.2-0.3c5-0.1,10.4-0.2,13.4-0.2c-0.1-4.6-0.4-8.9-1.9-9.7
			c-0.1,0-30.6-0.1-64.5-0.2l0,1.8c-0.1,3.9-0.2,9.8-0.3,12.7c1.7,0.1,3.1,0.9,4.1,2.1l0,0c0.9,1.1,1.5,2.6,1.7,4.2
			c0.2,1.5,0.1,3.2-0.5,4.7c-1,2.9-3.5,5.3-7.6,5.3c-1.2,0,1.1,0.3,1,0.7c-0.8,3.3-2.1,8.3-6.8,8.5v0l0,0l-0.6,0l-0.2,0
			c-3.3,0-5.9-1-7.7-2.7c-1.9-1.8-2.9-4.3-3.1-7.5h0l0,0l0-0.4l-0.1,0.6c0-0.4,0-1.8,0-0.9l0,0.2l0,0.2l-0.1,0.6l0,0.1
			c-2.4-0.3-5.4-0.6-5.4-5.4c0-7.7,2.8-9.1,4.7-9.8c0.1-2.3,0.5-6.5,1-10.1c0.2-2.2,0.7-3.9,0.9-4.8l-15.4,0
			c-24.2,0-45.3,0-52.7,0.2l0,0.1l0,0c-0.2,1.1-0.4,2.1-0.6,2.7l0,0c-0.8,2-1.2,4.4-1.4,6.8c-0.2,2.5-0.2,5.1-0.2,7.4
			c0,3.4,0.1,6,0.1,8.5c0.1,5.9,0.3,10.8-0.5,17.5c-1.1,9.8,1.3,10.2,10.9,11.7l3.3,0.5l0.1,0c7.3,1.2,30.3,0.5,48.4-0.1
			c8.3-0.3,15.6-0.5,19.7-0.5c5.6,0,12.2,0.1,18.9,0.3c11.5,0.2,23.3,0.5,32.9,0c2.9-0.1,5.7,0,8.3,0.2c5.5,0.3,10.3,0.6,13.6-2.2
			c0.5-0.4,1-3,1.3-6c0.2-1.7,0.3-3.4,0.4-5c-1,0-1.9,0-2.6,0c-7.7,0.5-13.7,0.5-21.2,0.5h-0.9c-1.1,0-2-0.9-2-2c0-1.1,0.9-2,2-2
			h0.9c7.5,0,13.4,0,20.9-0.5c0.7,0,1.8,0,2.9,0c0-1-0.1-1.8-0.2-2.2c-0.7-2.5-0.9-4.7-1-6.6l-3,0h-0.1c-7.2,0.1-19.8,0.2-21.6-0.2
			c-1.1-0.2-1.8-1.3-1.5-2.4c0.2-1.1,1.3-1.8,2.4-1.5c1.3,0.3,13.7,0.2,20.7,0.1h0l3,0c0-0.8-0.1-1.5-0.3-2.1
			c-0.5-1.9-0.5-5.2-0.5-8.8v-0.2c-3.1,0-8.5,0.1-13.3,0.2C1246.7,834.6,1241.8,834.7,1241.8,834.7z M1239.1,794.1
			c-1.1,0.2-2.2-0.4-2.4-1.5c-0.2-1.1,0.4-2.2,1.5-2.4c0.3-0.1,5.5-0.2,11.2-0.3c4.7-0.1,9.8-0.2,12.9-0.2c-0.4-2-0.7-4.1-1-6.7
			c-0.4-3.8-4.6-4.8-9.3-5.8c-1.9-0.4-3.9-0.9-5.9-1.6c-8.5-2.9-31.8-2.7-48.5-2.4c0,5.4,0.1,10.8,0.2,16.3
			c0.1,5.2,0.2,10.4,0.2,15.2c0,1,0,2.7,0,4.5c0,2.4-0.1,4.8,0,7.1c31,0.1,59.7,0.3,66.1,0.5c0.1-2.5-0.1-8.7-0.2-12l0-0.1l-0.8,0
			c-2.3,0-5.8-0.1-6.7,0.1c-6.9,1.2-8.9,1.2-14.4,1.2l-2.9,0c-1.1,0-2-0.9-2-2s0.9-2,2-2l2.9,0h0h0.1c5.1,0,7.1,0,13.6-1.1
			c1.3-0.2,4.9-0.2,7.4-0.2l0.7,0c-0.1-2.7-0.4-4.9-0.7-6.9c-3.1,0-8.6,0.1-13.6,0.2C1244,794,1239.2,794.1,1239.1,794.1z
			 M1107.9,820.4c-0.5-0.3-0.9-0.8-1-1.4c-0.2-1.1,0.5-2.1,1.6-2.4c0.2-0.3,0.4-0.6,0.7-0.8c0.3-2.4-0.5-7-1.3-11.2
			c-0.5-3.1-1-6-1-7.9c0-1.1,0-1.9,0-2.6v0c-0.2-9.2-0.4-18.9,16.2-21.6c5.5-0.9,15.1-1.6,25.2-2.2c13.4-0.7,27.8-1.1,35.6-1.1
			c2.9,0,6.2-0.1,9.9-0.1l1.4,0c0.2,0,0.3-0.1,0.5-0.1c0.1,0,0.3,0,0.4,0c17.1-0.3,42-0.6,51.4,2.6c1.8,0.6,3.7,1,5.5,1.5
			c6.2,1.4,11.7,2.7,12.4,9.4c0.3,2.9,0.7,5.2,1.2,7.4h0l0.2,1c0.1,0.2,0.1,0.5,0.1,0.8v0c0.6,3.1,1,6.3,1,10.9c0,0.5,0,1.2,0.1,2.1
			c0.1,3.8,0.4,10.9-0.4,14.4c2.1,3.5,2,9.9,2,15.5c0,3.3,0,6.3,0.4,7.8c0.4,1.5,0.4,3.2,0.5,5c0,2.2,0.1,4.8,0.9,7.7
			c0.2,0.7,0.3,2.2,0.3,4.2c0.2,0.3,0.3,0.7,0.3,1.1c0,0.4-0.1,0.8-0.4,1.2c-0.1,2-0.2,4.3-0.5,6.3c-0.5,3.9-1.3,7.5-2.7,8.6
			c-4.5,3.9-10.1,3.6-16.5,3.2h0c-2.5-0.1-5.2-0.3-7.9-0.2c-9.7,0.5-21.6,0.2-33.2,0c-6.3-0.1-12.6-0.3-18.8-0.3
			c-4.4,0-11.5,0.2-19.6,0.5c-18.2,0.6-41.5,1.3-49.2,0l-0.1,0l-3.3-0.5c-12.7-2-15.9-2.5-14.4-16.2c0.7-6.4,0.6-11.2,0.4-16.9
			c-0.1-2.7-0.1-5.6-0.1-8.6c0-2.3,0-5,0.3-7.8c0.3-2.8,0.7-5.6,1.7-8l0,0l0,0C1107.7,821.6,1107.8,821,1107.9,820.4z"/>
		<path fill-rule="evenodd" clip-rule="evenodd" fill="#CC6633" d="M1115.7,816.4l64.2-0.2l0-21.4l-1.1-18.9
			c-7.9,0.2-18.2,0.5-27.9,1c-10,0.5-19.4,1.3-24.8,2.1c-13,2.1-12.9,10-12.7,17.5v0v0c0,1,0,2,0,2.6c0,1.6,0.5,4.3,1,7.2
			C1115,809.8,1115.6,813.4,1115.7,816.4"/>
		<path fill-rule="evenodd" clip-rule="evenodd" fill="#CC6633" d="M1197.6,773.1l0.4,36.1c0,2.4-0.1,4.8,0,7.1
			c31,0.1,59.7,0.3,66.1,0.5l-0.2-12.2l-21.8,1.3c-2,0-5,0.5-5-2c0-2.5,3-2,5-2l21.7-1.3c-0.1-2.7-0.4-4.9-0.7-6.9l-23.9,0.4
			c-2.6,0.6-3.5-3.4-0.9-4l24.1-0.5c-2.7-14.2-0.2-8.7-16.2-14.1C1237.6,772.6,1214.3,772.8,1197.6,773.1"/>
		<path fill-rule="evenodd" clip-rule="evenodd" fill="#FF9933" d="M1193.9,816.3l-0.2-26.8c-0.1-5.5-0.3-11-0.2-16.4l-10.7,0.1
			l1.2,21.5l0,21.4L1193.9,816.3z"/>
		<path fill-rule="evenodd" clip-rule="evenodd" fill="#FF9933" d="M1185.5,836.8c2.9-2.4,8.1-0.6,9,1.6c0.8,2,0.6,7.3-2.2,8.5
			c0.4,0.7,1.6,6.6-3.4,6.6c-5.4,0-3.1-6.5-3.2-6.5c-2.9-0.8-3-4.5-2.4-6.9L1185.5,836.8z M1194.9,820.5l-11-0.2l-1.5,16
			c0.1,4.8-4.7-0.6-4.7,8.8c0,2.9,5.3-0.9,5.5,4.9c0.2,4.6,2.9,6.5,7.3,6.3c3.3-0.1,2-9.2,5.9-9.2c4.8,0,4.6-6.1,3.2-7.5
			c-1.4-1.7-5,1.5-4.9-2.6L1194.9,820.5z"/>
	</g>
</g>
</svg>
